<svg xmlns="http://www.w3.org/2000/svg" viewBox="0 0 74 74"><title>bordtennis</title><g id="Layer_2" data-name="Layer 2"><g id="Layer_1-2" data-name="Layer 1"><circle cx="47.35" cy="18.27" r="4.55" fill="none"/><path d="M33.33,54.29l-.23-6.51A17.2,17.2,0,0,1,37,13.83a17,17,0,0,1,5.71,1,5.79,5.79,0,1,1,9,7.28A17.16,17.16,0,0,1,40.9,47.77v6.52H72.52V1.47h-71V54.29Z" fill="none"/><path d="M37,15.07A16,16,0,0,0,21,31a15.77,15.77,0,0,0,2.31,8.23h27.3A15.77,15.77,0,0,0,53,31,16,16,0,0,0,50.76,23a5.78,5.78,0,0,1-9.2-4.68,5.65,5.65,0,0,1,.51-2.36A15.81,15.81,0,0,0,37,15.07Z" fill="none"/><path d="M37,47a15.93,15.93,0,0,0,12.81-6.48H24.19A15.93,15.93,0,0,0,37,47Z" fill="none"/><polygon points="40.9 55.53 40.9 64.84 33.1 64.84 33.33 55.53 1.48 55.53 1.48 72.53 72.75 72.53 72.53 55.53 40.9 55.53" fill="none"/><path d="M39.66,48a15.5,15.5,0,0,1-5.32,0V63.59h5.32Z" fill="none"/><path d="M0,0V74H74V0ZM72.52,1.47V54.29H40.9V47.77A17.16,17.16,0,0,0,51.69,22.1a5.79,5.79,0,1,0-9-7.28,17,17,0,0,0-5.71-1,17.2,17.2,0,0,0-3.9,34l.23,6.51H1.48V1.47ZM47.35,22.82a4.55,4.55,0,1,1,4.55-4.55A4.55,4.55,0,0,1,47.35,22.82Zm0,1.25A5.78,5.78,0,0,0,50.76,23,16,16,0,0,1,53,31a15.77,15.77,0,0,1-2.31,8.23H23.35A15.77,15.77,0,0,1,21,31a16,16,0,0,1,16-16,15.81,15.81,0,0,1,5.07.84,5.65,5.65,0,0,0-.51,2.36A5.8,5.8,0,0,0,47.35,24.07Zm2.46,16.44a15.9,15.9,0,0,1-25.62,0ZM34.34,48a15.5,15.5,0,0,0,5.32,0V63.59H34.34ZM1.48,72.54v-17H33.33l-.23,9.31h7.8V55.53H72.52l.24,17Z" fill="#fff"/></g></g></svg>