<svg xmlns="http://www.w3.org/2000/svg" viewBox="0 0 74 74"><title>bursdag_2</title><g id="Layer_2" data-name="Layer 2"><g id="Layer_1-2" data-name="Layer 1"><polygon points="43.55 27.76 37 13.75 33.58 21.08 43.55 27.76" fill="none"/><path d="M20.92,48.16l-3,6.45A37.38,37.38,0,0,0,37,59.84l.73,0Z" fill="none"/><polygon points="55.58 53.5 44.56 29.94 33.04 22.22 27.51 34.05 55.58 53.5" fill="none"/><path d="M39.79,59.73A37.37,37.37,0,0,0,55.48,55L27,35.19,21.45,47Z" fill="none"/><path d="M1.47,72.54H72.53V1.47H1.47ZM65.45,39a3.56,3.56,0,0,1-1.09,2.52l-.86-.9a2.31,2.31,0,0,0,.71-1.64,2.34,2.34,0,0,0-4-1.72l-.87-.9a3.59,3.59,0,0,1,5.07.08A3.55,3.55,0,0,1,65.45,39ZM55,20.11A3.59,3.59,0,0,1,59.63,18l-.22.58.22-.58a2.35,2.35,0,0,0,3-1.37,2.34,2.34,0,0,0-1.37-3l.44-1.17a3.59,3.59,0,0,1-1.26,7,3.49,3.49,0,0,1-1.27-.24h0a2.34,2.34,0,1,0-1.65,4.39l-.44,1.16A3.59,3.59,0,0,1,55,20.11ZM36.44,12a.64.64,0,0,1,1.12,0l19.9,42.57a.62.62,0,0,1-.24.79,38.71,38.71,0,0,1-40.44,0,.62.62,0,0,1-.24-.79l9.51-20.35a.59.59,0,0,1,.1-.38.86.86,0,0,1,.14-.13Zm-18.21-.61a3.58,3.58,0,0,1-.76,5,2.35,2.35,0,1,0,2.79,3.77l.74,1a3.53,3.53,0,0,1-2.13.7,3.59,3.59,0,0,1-2.14-6.47A2.34,2.34,0,1,0,14,11.66l-.74-1A3.59,3.59,0,0,1,18.23,11.41ZM10.78,27.74l.74,1a2.34,2.34,0,0,0,2.78,3.77l.74,1a3.53,3.53,0,0,1-2.13.7,3.58,3.58,0,0,1-2.13-6.47Z" fill="none"/><path d="M57.1,24.73l.44-1.16a2.34,2.34,0,1,1,1.65-4.39h0a3.49,3.49,0,0,0,1.27.24,3.61,3.61,0,0,0,1.47-.32,3.59,3.59,0,0,0-.21-6.63l-.44,1.17A2.34,2.34,0,0,1,61.42,18a2.32,2.32,0,0,1-1.79.06l-.22.58.22-.58a3.59,3.59,0,1,0-2.53,6.71Z" fill="#fff"/><path d="M17.23,12.15a2.34,2.34,0,0,1-.5,3.27,3.59,3.59,0,0,0,2.14,6.47,3.53,3.53,0,0,0,2.13-.7l-.74-1a2.35,2.35,0,1,1-2.79-3.77,3.58,3.58,0,1,0-4.26-5.76l.74,1A2.35,2.35,0,0,1,17.23,12.15Z" fill="#fff"/><path d="M12.91,34.21a3.53,3.53,0,0,0,2.13-.7l-.74-1a2.34,2.34,0,0,1-2.78-3.77l-.74-1a3.58,3.58,0,0,0,2.13,6.47Z" fill="#fff"/><path d="M59.37,36.31l.87.9a2.34,2.34,0,0,1,4,1.72,2.31,2.31,0,0,1-.71,1.64l.86.9a3.6,3.6,0,0,0,.08-5.08A3.59,3.59,0,0,0,59.37,36.31Z" fill="#fff"/><path d="M0,0V74H74V0ZM72.53,72.54H1.47V1.47H72.53Z" fill="#fff"/><path d="M26.05,34.24,16.54,54.59a.62.62,0,0,0,.24.79,38.71,38.71,0,0,0,40.44,0,.62.62,0,0,0,.24-.79L37.56,12a.64.64,0,0,0-1.12,0L26.29,33.73a.86.86,0,0,0-.14.13A.59.59,0,0,0,26.05,34.24Zm7-12,11.53,7.72,11,23.56L27.51,34.05ZM55.48,55a37.37,37.37,0,0,1-15.69,4.78L21.45,47,27,35.19Zm-37.57-.34,3-6.45L37.73,59.81l-.73,0A37.38,37.38,0,0,1,17.91,54.61ZM37,13.75l6.55,14-10-6.68Z" fill="#fff"/></g></g></svg>