<svg xmlns="http://www.w3.org/2000/svg" viewBox="0 0 74 74"><title>design</title><g id="Layer_2" data-name="Layer 2"><g id="Layer_1-2" data-name="Layer 1"><path d="M49.5,39.67a1.4,1.4,0,1,0,1.4-1.39A1.4,1.4,0,0,0,49.5,39.67Z" fill="none"/><path d="M24.5,39.67a1.4,1.4,0,1,0-1.4,1.39A1.4,1.4,0,0,0,24.5,39.67Z" fill="none"/><path d="M37,27.3a1.39,1.39,0,1,0-1.39-1.39A1.39,1.39,0,0,0,37,27.3Z" fill="none"/><path d="M61.14,27.3a1.39,1.39,0,1,0-1.39-1.39A1.39,1.39,0,0,0,61.14,27.3Z" fill="none"/><path d="M37,52.17a1.4,1.4,0,1,0,1.39,1.39A1.39,1.39,0,0,0,37,52.17Z" fill="none"/><path d="M1.48,72.53h71V1.46h-71ZM12.86,23.37a2.54,2.54,0,0,1,2.47,2h19.2a2.53,2.53,0,0,1,4.94,0h19.2a2.54,2.54,0,1,1,0,1.15H42.94a14.49,14.49,0,0,1,8.3,10.67,2.53,2.53,0,0,1,0,5A14.52,14.52,0,0,1,39.51,53.91a2.53,2.53,0,0,1-5,0A14.38,14.38,0,0,1,22.75,42.18a2.53,2.53,0,0,1,0-5,14.54,14.54,0,0,1,8.31-10.67H15.33a2.54,2.54,0,1,1-2.47-3.12Z" fill="none"/><path d="M23.91,37.27a2.53,2.53,0,0,1,0,4.8A13.21,13.21,0,0,0,34.6,52.76a2.53,2.53,0,0,1,4.8,0A13.37,13.37,0,0,0,50.09,42.07a2.53,2.53,0,0,1,0-4.8A13.35,13.35,0,0,0,39.44,26.58a2.53,2.53,0,0,1-4.88,0A13.38,13.38,0,0,0,23.91,37.27Z" fill="none"/><path d="M12.86,27.3a1.39,1.39,0,1,0-1.39-1.39A1.39,1.39,0,0,0,12.86,27.3Z" fill="none"/><path d="M0,0V74H74V0ZM72.51,72.53h-71V1.46h71Z" fill="#fff"/><path d="M12.86,28.45a2.54,2.54,0,0,0,2.47-2H31.07a14.54,14.54,0,0,0-8.31,10.67,2.53,2.53,0,0,0,0,5A14.38,14.38,0,0,0,34.49,53.91a2.53,2.53,0,0,0,5,0A14.52,14.52,0,0,0,51.24,42.18a2.53,2.53,0,0,0,0-5,14.49,14.49,0,0,0-8.3-10.67H58.67a2.55,2.55,0,1,0,0-1.15H39.47a2.53,2.53,0,0,0-4.94,0H15.33a2.54,2.54,0,1,0-2.47,3.11Zm48.28-3.93a1.39,1.39,0,1,1-1.39,1.39A1.39,1.39,0,0,1,61.14,24.52ZM21.71,39.67a1.4,1.4,0,1,1,1.39,1.39A1.39,1.39,0,0,1,21.71,39.67ZM37,55a1.4,1.4,0,1,1,1.39-1.4A1.4,1.4,0,0,1,37,55ZM52.29,39.67a1.4,1.4,0,1,1-1.39-1.39A1.39,1.39,0,0,1,52.29,39.67ZM37,24.52a1.39,1.39,0,1,1-1.39,1.39A1.39,1.39,0,0,1,37,24.52Zm0,3.93a2.53,2.53,0,0,0,2.44-1.87A13.35,13.35,0,0,1,50.09,37.27a2.53,2.53,0,0,0,0,4.8A13.37,13.37,0,0,1,39.4,52.76a2.53,2.53,0,0,0-4.8,0A13.21,13.21,0,0,1,23.91,42.07a2.53,2.53,0,0,0,0-4.8A13.38,13.38,0,0,1,34.56,26.58,2.53,2.53,0,0,0,37,28.45ZM12.86,24.52a1.39,1.39,0,1,1-1.39,1.39A1.39,1.39,0,0,1,12.86,24.52Z" fill="#fff"/></g></g></svg>