<svg xmlns="http://www.w3.org/2000/svg" viewBox="0 0 74 74"><title>emoji_2</title><g id="Layer_2" data-name="Layer 2"><g id="Layer_1-2" data-name="Layer 1"><path d="M51.75,20.11a2.14,2.14,0,1,0,2.14,2.14A2.14,2.14,0,0,0,51.75,20.11Z" fill="#de7f6d"/><path d="M0,0V74H74V0ZM22.25,18.85a3.4,3.4,0,1,1-3.4,3.4A3.4,3.4,0,0,1,22.25,18.85ZM53.89,57.44a16.89,16.89,0,0,0-33.78,0H18.85a18.15,18.15,0,0,1,36.3,0ZM51.75,25.65a3.4,3.4,0,1,1,3.4-3.4A3.41,3.41,0,0,1,51.75,25.65Z" fill="#ff5b5b"/><path d="M22.25,24.38a2.14,2.14,0,1,0-2.14-2.13A2.14,2.14,0,0,0,22.25,24.38Z" fill="#de7f6d"/><path d="M22.25,25.65a3.4,3.4,0,1,0-3.4-3.4A3.41,3.41,0,0,0,22.25,25.65Zm0-5.54a2.14,2.14,0,1,1-2.14,2.14A2.14,2.14,0,0,1,22.25,20.11Z" fill="#fff"/><path d="M51.75,18.85a3.4,3.4,0,1,0,3.4,3.4A3.4,3.4,0,0,0,51.75,18.85Zm0,5.53a2.14,2.14,0,1,1,2.14-2.13A2.14,2.14,0,0,1,51.75,24.38Z" fill="#fff"/><path d="M37,39.29A18.17,18.17,0,0,0,18.85,57.44h1.26a16.89,16.89,0,0,1,33.78,0h1.26A18.17,18.17,0,0,0,37,39.29Z" fill="#fff"/></g></g></svg>