<svg xmlns="http://www.w3.org/2000/svg" viewBox="0 0 74 74"><title>erfaren</title><g id="Layer_2" data-name="Layer 2"><g id="Layer_1-2" data-name="Layer 1"><path d="M65.92,55.83A3.68,3.68,0,0,1,67.85,57l-1.07,1a2.06,2.06,0,0,0-1.49-.76A2.1,2.1,0,0,0,63.8,58L63,57.22l.81.74a3.26,3.26,0,0,1-5.1,0l1.06-1a1.83,1.83,0,0,0,3,0h0a3.68,3.68,0,0,1,1.93-1.16V29.2H37.62v5.86A21,21,0,0,1,57.94,55.88,3.64,3.64,0,0,1,59.76,57L58.7,58a1.84,1.84,0,0,0-3,0l-.81-.74.81.74a3.26,3.26,0,0,1-5.1,0l1.06-1a2.07,2.07,0,0,0,1.49.77A2.11,2.11,0,0,0,54.66,57h0a3.57,3.57,0,0,1,2-1.15,19.69,19.69,0,0,0-39.38,0,3.58,3.58,0,0,1,2,1.17l-1.06,1a2.08,2.08,0,0,0-1.49-.76A2.08,2.08,0,0,0,15.3,58l-.81-.74.81.74a3.42,3.42,0,0,1-2.55,1.23A3.4,3.4,0,0,1,10.2,58l1.06-1a2.07,2.07,0,0,0,1.49.77A2.11,2.11,0,0,0,14.24,57h0a3.74,3.74,0,0,1,1.82-1.14A21,21,0,0,1,36.38,35.06V29.2H9.33V55.85A3.68,3.68,0,0,1,11.26,57L10.2,58a2.1,2.1,0,0,0-1.49-.76A2.06,2.06,0,0,0,7.22,58l-.81-.74.81.74a3.44,3.44,0,0,1-2.56,1.23A3.44,3.44,0,0,1,2.11,58l1.06-1a2.11,2.11,0,0,0,1.49.77A2.07,2.07,0,0,0,6.15,57h0a3.68,3.68,0,0,1,1.93-1.14V29.2H1.47V55.83A3.14,3.14,0,0,1,3.17,57L2.11,58c-.21-.23-.28-.47-.64-.62V72.49H72.53V57.34c-.36.15-.44.39-.64.62l-1.06-1a3.1,3.1,0,0,1,1.7-1.16V29.2H65.92ZM23.38,58l-.8-.74.8.74a3.26,3.26,0,0,1-5.1,0l1.06-1a2.09,2.09,0,0,0,1.49.77A2.09,2.09,0,0,0,22.32,57h0a3.31,3.31,0,0,1,5.11,0l-1.07,1a2.06,2.06,0,0,0-1.49-.76A2.1,2.1,0,0,0,23.38,58Zm8.09,0-.81-.74.81.74a3.27,3.27,0,0,1-5.11,0l1.07-1a2.07,2.07,0,0,0,1.49.77A2.11,2.11,0,0,0,30.41,57h0a3.26,3.26,0,0,1,5.1,0l-1.06,1A2.1,2.1,0,0,0,33,57.2,2.06,2.06,0,0,0,31.47,58ZM37,59.19A3.4,3.4,0,0,1,34.45,58l1.06-1a1.83,1.83,0,0,0,3,0l1.06,1A3.42,3.42,0,0,1,37,59.19ZM39.55,58l-1.06-1a3.3,3.3,0,0,1,5.1,0l-1.06,1a1.84,1.84,0,0,0-3,0Zm8.09,0-.81-.74.81.74a3.27,3.27,0,0,1-5.11,0l1.06-1a2.11,2.11,0,0,0,1.49.77A2.07,2.07,0,0,0,46.57,57h0a3.27,3.27,0,0,1,5.11,0l-1.06,1a2.1,2.1,0,0,0-1.49-.76A2.06,2.06,0,0,0,47.64,58Zm23.19-1,1.06,1a3.27,3.27,0,0,1-5.11,0l1.07-1a2.07,2.07,0,0,0,1.49.77A2.11,2.11,0,0,0,70.83,57Z" fill="none"/><rect x="1.47" y="1.5" width="71.06" height="26.45" fill="none"/><path d="M0,0V74H74V0ZM72.53,55.83A3.1,3.1,0,0,0,70.83,57l1.06,1c.2-.23.28-.47.64-.62V72.49H1.47V57.34c.36.15.43.39.64.62l1.06-1a3.14,3.14,0,0,0-1.7-1.16V29.2H8.08V55.85A3.68,3.68,0,0,0,6.15,57h0a2.07,2.07,0,0,1-1.49.77A2.11,2.11,0,0,1,3.17,57L2.11,58a3.44,3.44,0,0,0,2.55,1.23A3.44,3.44,0,0,0,7.22,58l-.81-.74.81.74a2.06,2.06,0,0,1,1.49-.76A2.1,2.1,0,0,1,10.2,58l1.06-1a3.68,3.68,0,0,0-1.93-1.14V29.2H36.38v5.86A21,21,0,0,0,16.06,55.85,3.74,3.74,0,0,0,14.24,57h0a2.11,2.11,0,0,1-1.49.77A2.07,2.07,0,0,1,11.26,57L10.2,58a3.4,3.4,0,0,0,2.55,1.23A3.42,3.42,0,0,0,15.3,58l-.81-.74.81.74a2.08,2.08,0,0,1,1.49-.76,2.08,2.08,0,0,1,1.49.76l1.06-1a3.58,3.58,0,0,0-2-1.17,19.69,19.69,0,0,1,39.38,0,3.57,3.57,0,0,0-2,1.15h0a2.11,2.11,0,0,1-1.49.77A2.07,2.07,0,0,1,51.68,57l-1.06,1a3.26,3.26,0,0,0,5.1,0l-.81-.74.81.74a1.84,1.84,0,0,1,3,0l1.06-1a3.64,3.64,0,0,0-1.82-1.11A21,21,0,0,0,37.62,35.06V29.2H64.67V55.83A3.68,3.68,0,0,0,62.74,57h0a1.83,1.83,0,0,1-3,0L58.7,58a3.26,3.26,0,0,0,5.1,0L63,57.22l.81.74a2.1,2.1,0,0,1,1.49-.76,2.06,2.06,0,0,1,1.49.76l1.07-1a3.68,3.68,0,0,0-1.93-1.16V29.2h6.61Zm0-27.88H1.47V1.5H72.53Z" fill="#fff"/><path d="M27.43,57a3.31,3.31,0,0,0-5.11,0h0a2.09,2.09,0,0,1-1.49.77A2.09,2.09,0,0,1,19.34,57l-1.06,1a3.26,3.26,0,0,0,5.1,0l-.8-.74.8.74a2.1,2.1,0,0,1,1.49-.76,2.06,2.06,0,0,1,1.49.76Z" fill="#fff"/><path d="M35.51,57a3.26,3.26,0,0,0-5.1,0h0a2.11,2.11,0,0,1-1.49.77A2.07,2.07,0,0,1,27.43,57l-1.07,1a3.27,3.27,0,0,0,5.11,0l-.81-.74.81.74A2.06,2.06,0,0,1,33,57.2a2.1,2.1,0,0,1,1.49.76Z" fill="#fff"/><path d="M37,57.76A2.09,2.09,0,0,1,35.51,57l-1.06,1a3.26,3.26,0,0,0,5.1,0l-1.06-1A2.09,2.09,0,0,1,37,57.76Z" fill="#fff"/><path d="M43.59,57a3.3,3.3,0,0,0-5.1,0l1.06,1a1.84,1.84,0,0,1,3,0Z" fill="#fff"/><path d="M51.68,57a3.27,3.27,0,0,0-5.11,0h0a2.07,2.07,0,0,1-1.49.77A2.11,2.11,0,0,1,43.59,57l-1.06,1a3.27,3.27,0,0,0,5.11,0l-.81-.74.81.74a2.06,2.06,0,0,1,1.49-.76,2.1,2.1,0,0,1,1.49.76Z" fill="#fff"/><path d="M66.78,58a3.27,3.27,0,0,0,5.11,0l-1.06-1a2.11,2.11,0,0,1-1.49.77A2.07,2.07,0,0,1,67.85,57Z" fill="#fff"/></g></g></svg>