<svg id="Layer_1" data-name="Layer 1" xmlns="http://www.w3.org/2000/svg" viewBox="0 0 31.18 22.68"><defs><style>.cls-1{fill:#fff;}</style></defs><title>Bekk ikoner</title><path class="cls-1" d="M21.86,10.11h-.6V6A5.23,5.23,0,0,0,15.63.61C10.25.61,10,4.43,10,5.69c-.06,1,0,3.36,0,4.42H9.32a1.45,1.45,0,0,0-1.44,1.44v9.08a1.44,1.44,0,0,0,1.44,1.43H21.86a1.44,1.44,0,0,0,1.44-1.43V11.55A1.45,1.45,0,0,0,21.86,10.11ZM11.45,5.78c.11-1.91.69-3.67,4.18-3.67A3.74,3.74,0,0,1,19.76,6v4.12H11.44C11.42,9.08,11.39,6.69,11.45,5.78Z"/></svg>