<svg xmlns="http://www.w3.org/2000/svg" viewBox="0 0 74 74"><title>senior</title><g id="Layer_2" data-name="Layer 2"><g id="Layer_1-2" data-name="Layer 1"><path d="M28.37,54.82a3.64,3.64,0,0,0-1,2.64,3.68,3.68,0,1,0,6.19-2.82,3.68,3.68,0,0,0-5.21.18Z" fill="none"/><path d="M0,0V74H74V0ZM72.53,72.49H1.47V1.5H29.34L42,37.89,35.79,48.18,22.21,50.36l.2,1.23,12.54-2-2,3.25a5,5,0,0,0-2.11-.41,4.92,4.92,0,0,0-4.75,5.09h0a4.94,4.94,0,0,0,4.93,4.75h.17a4.92,4.92,0,0,0,3.19-8.52l-.36-.27,2-3.43L41.45,61.1l1.12-.54-5.68-11.8,7.34-12.23,2.41,1.59.68-1-3.49-2.3-1,1.72L30.66,1.5H72.53ZM33.58,54.64a3.68,3.68,0,1,1-2.64-1A3.67,3.67,0,0,1,33.58,54.64Z" fill="#fff"/></g></g></svg>