<svg xmlns="http://www.w3.org/2000/svg" viewBox="0 0 74 74"><title>sol</title><g id="Layer_2" data-name="Layer 2"><g id="Layer_1-2" data-name="Layer 1"><path d="M42.73,42.73a8.1,8.1,0,1,0-11.46,0A8.13,8.13,0,0,0,42.73,42.73Z" fill="none"/><path d="M1.47,72.52H72.53v-71H1.47ZM37.72,60.68H36.28V56.53h1.44Zm18.81-24.4h4.15v1.44H56.53ZM53.24,19.75l1,1-2.93,2.93-1-1ZM51.32,50.31l2.93,2.93-1,1-2.93-2.93Zm-15-37h1.44v4.15H36.28Zm-6,16.94a9.53,9.53,0,1,1,0,13.48A9.54,9.54,0,0,1,30.26,30.26Zm-9.5-10.51,2.93,2.93-1,1-2.93-2.93Zm1.92,30.56,1,1-2.93,2.93-1-1Zm-9.36-14h4.15v1.44H13.32Z" fill="none"/><path d="M0,0V74H74V0ZM72.53,72.52H1.47v-71H72.53Z" fill="#fff"/><path d="M37,46.53a9.53,9.53,0,1,0-6.74-2.79A9.5,9.5,0,0,0,37,46.53ZM31.27,31.27a8.1,8.1,0,1,1,0,11.46A8.12,8.12,0,0,1,31.27,31.27Z" fill="#fff"/><rect x="36.28" y="13.32" width="1.44" height="4.15" fill="#fff"/><rect x="50.21" y="21" width="4.15" height="1.44" transform="translate(-0.05 43.33) rotate(-45)" fill="#fff"/><rect x="56.53" y="36.28" width="4.15" height="1.44" fill="#fff"/><rect x="51.56" y="50.21" width="1.44" height="4.15" transform="translate(-21.65 52.28) rotate(-45)" fill="#fff"/><rect x="36.28" y="56.53" width="1.44" height="4.15" fill="#fff"/><rect x="19.65" y="51.56" width="4.15" height="1.44" transform="translate(-30.6 30.67) rotate(-45)" fill="#fff"/><rect x="13.32" y="36.28" width="4.15" height="1.44" fill="#fff"/><rect x="21" y="19.65" width="1.44" height="4.15" transform="translate(-9 21.72) rotate(-45)" fill="#fff"/></g></g></svg>