<svg xmlns="http://www.w3.org/2000/svg" viewBox="0 0 74 74"><title>soloppgang</title><g id="Layer_2" data-name="Layer 2"><g id="Layer_1-2" data-name="Layer 1"><path d="M1.47,45a4.25,4.25,0,0,1,2.3,1.4l-.92.83a3.44,3.44,0,0,0-1.38-1V72.53H72.53V46.22a3.37,3.37,0,0,0-1.38,1l-.92-.83.92.84a3.88,3.88,0,0,1-6.1,0l.92-.84a2.66,2.66,0,0,0,4.26,0,4.22,4.22,0,0,1,2.3-1.4V1.46H1.47Zm30.35,1.16a3,3,0,0,0-2.14,1.07l-.91-.83.91.84a3.88,3.88,0,0,1-6.1,0l.92-.84a3,3,0,0,0,2.13,1.07,3,3,0,0,0,2.14-1.07,3.88,3.88,0,0,1,6.1,0l-.92.83A3,3,0,0,0,31.82,46.11Zm10.36,0a3,3,0,0,0-2.13,1.07l-.92-.83.92.84a3.88,3.88,0,0,1-6.1,0l.92-.84a2.66,2.66,0,0,0,4.26,0,3.92,3.92,0,0,1,6.1,0l-.91.83A3,3,0,0,0,42.18,46.11ZM66,46.35l-.92.83a2.66,2.66,0,0,0-4.27,0l-.91-.84A3.92,3.92,0,0,1,66,46.35ZM60.45,21l1.15,1.15-3.33,3.33L57.12,24.3ZM57.73,47.42a3,3,0,0,0,2.14-1.07l.91.84a3.88,3.88,0,0,1-6.1,0l.92-.84A3,3,0,0,0,57.73,47.42ZM35.88,10.67h1.63v4.71H35.88ZM20.52,45a16.2,16.2,0,0,1,32.35-.13,4.19,4.19,0,0,1,2.73,1.45l-.92.83a2.66,2.66,0,0,0-4.26,0l-.92-.83.92.84a3.88,3.88,0,0,1-6.1,0l.91-.84a2.67,2.67,0,0,0,4.27,0,4.57,4.57,0,0,1,1.75-1.22A14.58,14.58,0,0,0,22.14,45a4.32,4.32,0,0,1,2.36,1.38l-.92.83a3,3,0,0,0-2.13-1.07,2.92,2.92,0,0,0-2.13,1.08l-.92-.84A4.37,4.37,0,0,1,20.52,45ZM18.4,46.35l.92.84a4.16,4.16,0,0,1-3.05,1.48,4.13,4.13,0,0,1-3-1.48l.91-.84a3,3,0,0,0,2.14,1.07A3,3,0,0,0,18.4,46.35ZM12.94,21l3.33,3.33-1.15,1.15-3.33-3.33Zm-7,26.45A3,3,0,0,0,8,46.35a4.13,4.13,0,0,1,3.05-1.48,4.1,4.1,0,0,1,3.05,1.48l-.91.83a3,3,0,0,0-2.14-1.07A3,3,0,0,0,9,47.18L8,46.35l.92.84a4.15,4.15,0,0,1-3,1.48,4.15,4.15,0,0,1-3.05-1.48l.92-.84A3,3,0,0,0,5.9,47.42Z" fill="none"/><path d="M0,0V74H74V0ZM72.53,45a4.22,4.22,0,0,0-2.3,1.4l.92.83a3.37,3.37,0,0,1,1.38-1V72.53H1.47V46.22a3.44,3.44,0,0,1,1.38,1l.92-.83A4.25,4.25,0,0,0,1.47,45V1.46H72.53Z" fill="#fff"/><path d="M2.85,47.19A4.15,4.15,0,0,0,5.9,48.67a4.15,4.15,0,0,0,3-1.48L8,46.35A3,3,0,0,1,5.9,47.42a3,3,0,0,1-2.13-1.07Z" fill="#fff"/><path d="M11.08,46.11a3,3,0,0,1,2.14,1.07l.91-.83a4.1,4.1,0,0,0-3.05-1.48A4.13,4.13,0,0,0,8,46.35l.92.83A3,3,0,0,1,11.08,46.11Z" fill="#fff"/><path d="M14.13,46.35l-.91.84a4.13,4.13,0,0,0,3,1.48,4.16,4.16,0,0,0,3.05-1.48l-.92-.84a3,3,0,0,1-2.13,1.07A3,3,0,0,1,14.13,46.35Z" fill="#fff"/><path d="M26.63,47.42a3,3,0,0,1-2.13-1.07l-.92.84a3.88,3.88,0,0,0,6.1,0l-.91-.84A3,3,0,0,1,26.63,47.42Z" fill="#fff"/><path d="M34.87,46.35a3.88,3.88,0,0,0-6.1,0l.91.83a2.67,2.67,0,0,1,4.27,0Z" fill="#fff"/><path d="M37,47.42a3,3,0,0,1-2.13-1.07l-.92.84a3.88,3.88,0,0,0,6.1,0l-.92-.84A3,3,0,0,1,37,47.42Z" fill="#fff"/><path d="M45.23,46.35a3.92,3.92,0,0,0-6.1,0l.92.83a2.67,2.67,0,0,1,4.27,0Z" fill="#fff"/><path d="M47.37,47.42a3,3,0,0,1-2.14-1.07l-.91.84a3.88,3.88,0,0,0,6.1,0l-.92-.84A3,3,0,0,1,47.37,47.42Z" fill="#fff"/><path d="M21.45,46.11a3,3,0,0,1,2.13,1.07l.92-.83A4.32,4.32,0,0,0,22.14,45a14.58,14.58,0,0,1,29.11.16,4.57,4.57,0,0,0-1.75,1.22l.92.83a2.66,2.66,0,0,1,4.26,0l.92-.83a4.19,4.19,0,0,0-2.73-1.45A16.2,16.2,0,0,0,20.52,45a4.37,4.37,0,0,0-2.12,1.32l.92.84A2.92,2.92,0,0,1,21.45,46.11Z" fill="#fff"/><path d="M54.68,47.19a3.88,3.88,0,0,0,6.1,0l-.91-.84a2.67,2.67,0,0,1-4.27,0Z" fill="#fff"/><path d="M60.78,47.19a2.66,2.66,0,0,1,4.27,0l.92-.83a3.92,3.92,0,0,0-6.1,0Z" fill="#fff"/><path d="M68.1,47.42A3,3,0,0,1,66,46.35l-.92.84a3.88,3.88,0,0,0,6.1,0l-.92-.84A3,3,0,0,1,68.1,47.42Z" fill="#fff"/><rect x="13.22" y="20.85" width="1.62" height="4.71" transform="translate(-12.3 16.72) rotate(-45)" fill="#fff"/><rect x="35.88" y="10.67" width="1.62" height="4.71" fill="#fff"/><rect x="57.01" y="22.4" width="4.71" height="1.62" transform="translate(0.98 48.77) rotate(-45)" fill="#fff"/></g></g></svg>