<svg xmlns="http://www.w3.org/2000/svg" viewBox="0 0 74 74"><title>sommerjobb</title><g id="Layer_2" data-name="Layer 2"><g id="Layer_1-2" data-name="Layer 1"><path d="M45.9,29a12,12,0,0,1,0,16l6.05,6a20.53,20.53,0,0,0,0-28.14Z" fill="none"/><path d="M29.4,44.6a10.75,10.75,0,1,0,0-15.2A10.76,10.76,0,0,0,29.4,44.6Z" fill="none"/><path d="M29,28.1a12,12,0,0,1,16,0l6-6.05a20.54,20.54,0,0,0-28.14,0Z" fill="none"/><path d="M45,45.9a12,12,0,0,1-16,0L22.93,52a20.53,20.53,0,0,0,28.14,0Z" fill="none"/><path d="M1.48,72.49h71V1.5h-71Zm20.1-50.91a21.79,21.79,0,1,1,0,30.84A21.84,21.84,0,0,1,21.58,21.58Z" fill="none"/><path d="M28.1,45a12,12,0,0,1,0-16l-6.05-6.05a20.53,20.53,0,0,0,0,28.14Z" fill="none"/><path d="M0,0V74H74V0ZM72.52,72.49h-71V1.5h71Z" fill="#fff"/><path d="M37,58.79a21.79,21.79,0,1,0-15.42-6.37A21.74,21.74,0,0,0,37,58.79ZM22.93,52,29,45.9a12,12,0,0,0,16,0l6,6.05A20.53,20.53,0,0,1,22.93,52ZM29.4,29.4a10.75,10.75,0,1,1,0,15.2A10.76,10.76,0,0,1,29.4,29.4ZM52,51.07,45.9,45a12,12,0,0,0,0-16L52,22.93A20.53,20.53,0,0,1,52,51.07Zm-.88-29L45,28.1a12,12,0,0,0-16,0l-6.05-6.05A20.54,20.54,0,0,1,51.07,22.05Zm-29,.88L28.1,29a12,12,0,0,0,0,16l-6.05,6A20.53,20.53,0,0,1,22.05,22.93Z" fill="#fff"/></g></g></svg>