<svg xmlns="http://www.w3.org/2000/svg" viewBox="0 0 74 74"><title>veien</title><g id="Layer_2" data-name="Layer 2"><g id="Layer_1-2" data-name="Layer 1"><path d="M57.29,39.88l-1.23-.74a14.15,14.15,0,0,0,1.15-2.47l1.35.5A16.16,16.16,0,0,1,57.29,39.88Zm2.09-5.55L58,34c.19-.85.35-1.78.48-2.75l1.42.18A28.81,28.81,0,0,1,59.38,34.33Zm.78-5.79-1.43-.09c.06-.89.09-1.84.1-2.82h1.43C60.26,26.65,60.22,27.62,60.16,28.54ZM54.8,10.77l1-1,3.7,3.71,3.71-3.71,1,1-3.71,3.71,3.71,3.7-1,1-3.71-3.71-3.7,3.71-1-1,3.71-3.7Zm-.39,30.44,1,1a8.45,8.45,0,0,1-2.61,1.68l-.54-1.32A7.41,7.41,0,0,0,54.41,41.21ZM47,43a10.91,10.91,0,0,0,2.68.2l.08,1.43-.59,0a13.25,13.25,0,0,1-2.44-.24Zm-5.19-1.85a26,26,0,0,0,2.55,1.11l-.49,1.34a24.52,24.52,0,0,1-2.7-1.17ZM37,38.23c.8.55,1.6,1.07,2.37,1.53L38.61,41c-.8-.48-1.62-1-2.44-1.58ZM32.16,35c.8.45,1.63,1,2.48,1.54l-.81,1.19c-.81-.55-1.61-1-2.38-1.49Zm-5.5-2.22a15.86,15.86,0,0,1,2.85.91L29,35a15.86,15.86,0,0,0-2.6-.83Zm-3-.25L23.71,34a6.58,6.58,0,0,0-2.47.64l-.63-1.29A8,8,0,0,1,23.62,32.56Zm-5.5,2.64,1.05,1a10.81,10.81,0,0,0-1.54,2.18l-1.26-.68A12.42,12.42,0,0,1,18.12,35.2Zm-2.93,5.23,1.36.46a23.31,23.31,0,0,0-.72,2.69l-1.4-.3A26.18,26.18,0,0,1,15.19,40.43ZM14,46.18l1.43.17a26.55,26.55,0,0,0-.19,2.79H13.76S13.77,47.91,14,46.18Zm-4.2,9.64,1-1,3.71,3.71,3.7-3.71,1,1-3.71,3.7,3.71,3.71-1,1-3.7-3.71-3.71,3.71-1-1,3.71-3.71Z" fill="none"/><path d="M0,0V74H74V0ZM72.53,72.53H1.47V1.47H72.53Z" fill="#fff"/><polygon points="10.77 64.24 14.48 60.53 18.18 64.24 19.2 63.23 15.49 59.52 19.2 55.82 18.18 54.8 14.48 58.51 10.77 54.8 9.76 55.82 13.47 59.52 9.76 63.23 10.77 64.24" fill="#fff"/><polygon points="55.82 19.2 59.52 15.49 63.23 19.2 64.24 18.18 60.53 14.48 64.24 10.77 63.23 9.76 59.52 13.47 55.82 9.76 54.8 10.77 58.51 14.48 54.8 18.18 55.82 19.2" fill="#fff"/><path d="M23.71,34l-.09-1.43a8,8,0,0,0-3,.78l.63,1.29A6.58,6.58,0,0,1,23.71,34Z" fill="#fff"/><path d="M29.51,33.72a15.86,15.86,0,0,0-2.85-.91l-.3,1.4A15.86,15.86,0,0,1,29,35Z" fill="#fff"/><path d="M19.17,36.18l-1.05-1a12.42,12.42,0,0,0-1.75,2.48l1.26.68A10.81,10.81,0,0,1,19.17,36.18Z" fill="#fff"/><path d="M15.39,46.35,14,46.18c-.19,1.73-.2,2.91-.2,3H15.2A26.55,26.55,0,0,1,15.39,46.35Z" fill="#fff"/><path d="M16.55,40.89l-1.36-.46a26.18,26.18,0,0,0-.76,2.85l1.4.3A23.31,23.31,0,0,1,16.55,40.89Z" fill="#fff"/><path d="M34.64,36.57C33.79,36,33,35.48,32.16,35l-.71,1.24c.77.44,1.57.94,2.38,1.49Z" fill="#fff"/><path d="M58,34l1.39.32a28.81,28.81,0,0,0,.51-2.89l-1.42-.18C58.34,32.23,58.18,33.16,58,34Z" fill="#fff"/><path d="M55.38,42.26l-1-1a7.41,7.41,0,0,1-2.18,1.41l.54,1.32A8.45,8.45,0,0,0,55.38,42.26Z" fill="#fff"/><path d="M58.73,28.45l1.43.09c.06-.92.1-1.89.1-2.9H58.83C58.82,26.61,58.79,27.56,58.73,28.45Z" fill="#fff"/><path d="M56.06,39.14l1.23.74a16.16,16.16,0,0,0,1.27-2.71l-1.35-.5A14.15,14.15,0,0,1,56.06,39.14Z" fill="#fff"/><path d="M44.36,42.23a26,26,0,0,1-2.55-1.11l-.64,1.28a24.52,24.52,0,0,0,2.7,1.17Z" fill="#fff"/><path d="M39.35,39.76c-.77-.46-1.57-1-2.37-1.53l-.81,1.18c.82.57,1.64,1.1,2.44,1.58Z" fill="#fff"/><path d="M49.76,44.6l-.08-1.43A10.91,10.91,0,0,1,47,43l-.27,1.41a13.25,13.25,0,0,0,2.44.24Z" fill="#fff"/></g></g></svg>