<svg xmlns="http://www.w3.org/2000/svg" viewBox="0 0 74 74"><title>verktøy</title><g id="Layer_2" data-name="Layer 2"><g id="Layer_1-2" data-name="Layer 1"><path d="M44.45,53.25l5.24-9.77-12-20.77V42.58a3.29,3.29,0,1,1-1.44,0V22.71l-12,20.77,5.24,9.77Z" fill="none"/><circle cx="37" cy="45.79" r="1.86" fill="none"/><path d="M1.48,72.52h71v-71h-71ZM37,18.59,51.33,43.45l-6,11.24H28.69l-6-11.24Z" fill="none"/><path d="M0,0V74H74V0ZM72.51,72.52h-71v-71h71Z" fill="#fff"/><path d="M45.31,54.69l6-11.24L37,18.59,22.67,43.45l6,11.24ZM37,43.93a1.86,1.86,0,1,1-1.86,1.86A1.86,1.86,0,0,1,37,43.93Zm-.72-21.22V42.58a3.29,3.29,0,1,0,1.44,0V22.71l12,20.77-5.24,9.77H29.55l-5.24-9.77Z" fill="#fff"/></g></g></svg>