<svg xmlns="http://www.w3.org/2000/svg" viewBox="0 0 74 74"><title>verktøy2</title><g id="Layer_2" data-name="Layer 2"><g id="Layer_1-2" data-name="Layer 1"><polygon points="16.33 29.21 16.33 57.06 35.43 29.21 16.33 29.21" fill="none"/><rect x="16.33" y="1.46" width="20.2" height="26.51" fill="none"/><polygon points="37.78 27.97 37.79 27.97 37.78 27.99 37.78 28.19 37.64 28.19 15.09 61.08 15.09 28.59 15.09 27.97 15.09 1.46 1.48 1.46 1.48 72.53 72.51 72.53 72.51 1.46 37.78 1.46 37.78 27.97" fill="none"/><path d="M0,0V74H74V0ZM16.33,1.46H36.54V28H16.33Zm0,27.76h19.1L16.33,57.06ZM72.51,72.53h-71V1.46H15.09V61.08L37.64,28.19h.14V28h0V1.46H72.51Z" fill="#fff"/></g></g></svg>