<svg xmlns="http://www.w3.org/2000/svg" viewBox="0 0 74 74"><title>emoji_4</title><g id="Layer_2" data-name="Layer 2"><g id="Layer_1-2" data-name="Layer 1"><path d="M22.25,20.11a2.14,2.14,0,1,0,2.13,2.14A2.14,2.14,0,0,0,22.25,20.11Z" fill="#43cbff"/><path d="M37,44.75a2.14,2.14,0,1,0,2.13,2.13A2.13,2.13,0,0,0,37,44.75Z" fill="#43cbff"/><path d="M0,0V74H74V0ZM22.25,25.65a3.4,3.4,0,1,1,3.4-3.4A3.4,3.4,0,0,1,22.25,25.65ZM37,50.28a3.4,3.4,0,1,1,3.4-3.4A3.4,3.4,0,0,1,37,50.28ZM51.75,25.65a3.4,3.4,0,1,1,3.4-3.4A3.41,3.41,0,0,1,51.75,25.65Z" fill="#43cbff"/><path d="M51.75,20.11a2.14,2.14,0,1,0,2.14,2.14A2.14,2.14,0,0,0,51.75,20.11Z" fill="#43cbff"/><path d="M51.75,18.85a3.4,3.4,0,1,0,3.4,3.4A3.4,3.4,0,0,0,51.75,18.85Zm0,5.53a2.14,2.14,0,1,1,2.14-2.13A2.14,2.14,0,0,1,51.75,24.38Z" fill="#fff"/><path d="M22.25,18.85a3.4,3.4,0,1,0,3.4,3.4A3.4,3.4,0,0,0,22.25,18.85Zm0,5.53a2.14,2.14,0,1,1,2.13-2.13A2.14,2.14,0,0,1,22.25,24.38Z" fill="#fff"/><path d="M37,43.48a3.4,3.4,0,1,0,3.4,3.4A3.41,3.41,0,0,0,37,43.48ZM37,49a2.14,2.14,0,1,1,2.13-2.14A2.13,2.13,0,0,1,37,49Z" fill="#fff"/></g></g></svg>