<svg xmlns="http://www.w3.org/2000/svg" viewBox="0 0 74 74"><title>fest</title><g id="Layer_2" data-name="Layer 2"><g id="Layer_1-2" data-name="Layer 1"><path d="M43.79,42.75a14,14,0,0,1-6.17,1.7V60.62L49.39,44.43A13.91,13.91,0,0,1,43.79,42.75Z" fill="none"/><circle cx="37" cy="30.3" r="12.94" fill="none"/><path d="M30.24,42.77a14.26,14.26,0,0,1-5.59,1.66L36.38,60.62V44.45A14,14,0,0,1,30.24,42.77Z" fill="none"/><path d="M51.19,30.3A14.18,14.18,0,0,1,45,42a12.94,12.94,0,1,0,5.55-24.64A13.09,13.09,0,0,0,45,18.6,14.21,14.21,0,0,1,51.19,30.3Z" fill="none"/><path d="M1.47,72.54H72.53V1.47H1.47Zm22-56.43a14.25,14.25,0,0,1,6.77,1.72,14.17,14.17,0,0,1,13.55,0A14.18,14.18,0,1,1,50.9,44.47L37.62,62.74v2.89a.62.62,0,0,1-.62.62.62.62,0,0,1-.62-.62V62.74L23.15,44.47a14.18,14.18,0,0,1,.32-28.36Z" fill="none"/><path d="M23.47,43.24A13,13,0,0,0,29,42a14.16,14.16,0,0,1,0-23.41,12.94,12.94,0,1,0-5.53,24.65Z" fill="none"/><path d="M0,0V74H74V0ZM72.53,72.54H1.47V1.47H72.53Z" fill="#fff"/><path d="M23.15,44.47,36.38,62.74v2.89a.62.62,0,0,0,.62.62.62.62,0,0,0,.62-.62V62.74L50.9,44.47a14.18,14.18,0,1,0-7.11-26.63,14.17,14.17,0,0,0-13.55,0,14.18,14.18,0,1,0-7.09,26.64Zm1.5,0a14.26,14.26,0,0,0,5.59-1.66,14,14,0,0,0,6.14,1.68V60.62Zm13,0a14,14,0,0,0,6.17-1.7,13.91,13.91,0,0,0,5.6,1.68L37.62,60.62Zm13-27.1A12.95,12.95,0,1,1,45,42,14.17,14.17,0,0,0,45,18.6,13.09,13.09,0,0,1,50.57,17.35ZM50,30.3A12.95,12.95,0,1,1,37,17.35,13,13,0,0,1,50,30.3ZM23.47,17.35A13,13,0,0,1,29,18.59,14.16,14.16,0,0,0,29,42a12.94,12.94,0,1,1-5.53-24.65Z" fill="#fff"/></g></g></svg>