<svg xmlns="http://www.w3.org/2000/svg" viewBox="0 0 74 74"><title>filter</title><g id="Layer_2" data-name="Layer 2"><g id="Layer_1-2" data-name="Layer 1"><path d="M19.78,28.22a1.91,1.91,0,1,0-1.91-1.91A1.91,1.91,0,0,0,19.78,28.22Z" fill="none"/><path d="M37,48.47a1.91,1.91,0,1,0-1.91-1.91A1.92,1.92,0,0,0,37,48.47Z" fill="none"/><path d="M54.22,35.27a1.91,1.91,0,1,0-1.9-1.91A1.91,1.91,0,0,0,54.22,35.27Z" fill="none"/><path d="M1.48,72.53h71V1.46h-71Zm52-42.43V19.78h1.43V30.1a3.34,3.34,0,0,1,0,6.52v17.6H53.51V36.62a3.34,3.34,0,0,1,0-6.52ZM36.28,43.29V19.78h1.44V43.29a3.34,3.34,0,0,1,0,6.53v4.4H36.28v-4.4a3.34,3.34,0,0,1,0-6.53ZM19.06,23V19.78h1.43V23a3.34,3.34,0,0,1,0,6.53V54.22H19.06V29.57a3.34,3.34,0,0,1,0-6.53Z" fill="none"/><path d="M0,0V74H74V0ZM72.52,72.53h-71V1.46h71Z" fill="#fff"/><path d="M19.06,29.57V54.22h1.43V29.57a3.34,3.34,0,0,0,0-6.53V19.78H19.06V23a3.34,3.34,0,0,0,0,6.53Zm.72-5.17a1.91,1.91,0,1,1-1.91,1.91A1.9,1.9,0,0,1,19.78,24.4Z" fill="#fff"/><path d="M36.28,49.82v4.4h1.44v-4.4a3.34,3.34,0,0,0,0-6.53V19.78H36.28V43.29a3.34,3.34,0,0,0,0,6.53ZM37,44.65a1.91,1.91,0,1,1-1.91,1.91A1.91,1.91,0,0,1,37,44.65Z" fill="#fff"/><path d="M53.51,36.62v17.6h1.43V36.62a3.34,3.34,0,0,0,0-6.52V19.78H53.51V30.1a3.34,3.34,0,0,0,0,6.52Zm.71-5.17a1.91,1.91,0,1,1-1.9,1.91A1.91,1.91,0,0,1,54.22,31.45Z" fill="#fff"/></g></g></svg>