<svg xmlns="http://www.w3.org/2000/svg" viewBox="0 0 74 74"><title>foosball</title><g id="Layer_2" data-name="Layer 2"><g id="Layer_1-2" data-name="Layer 1"><polygon points="72.51 29.45 48.64 29.45 48.61 34.17 72.51 34.17 72.51 29.45" fill="none"/><path d="M26.79,35.37l6.52,17.32H29.74v9.74H44.27V52.69H40.69l6.52-17.32v-6.6l-5-5,.48-.51a7.78,7.78,0,1,0-11.3,0l.49.51-5.05,5Z" fill="none"/><path d="M25.51,28l4.34-4.34a9.21,9.21,0,1,1,14.3,0L48.49,28h24V1.47h-71V28Z" fill="none"/><rect x="1.48" y="29.45" width="23.87" height="4.72" fill="none"/><polygon points="48.6 35.61 48.6 35.75 42.77 51.25 45.7 51.25 45.7 63.86 28.3 63.86 28.3 51.25 31.23 51.25 25.4 35.61 1.48 35.61 1.48 72.53 72.51 72.53 72.51 35.61 48.6 35.61" fill="none"/><path d="M0,0V74H74V0ZM72.51,1.47V28h-24l-4.34-4.34a9.21,9.21,0,1,0-14.3,0L25.51,28h-24V1.47Zm-23.87,28H72.51v4.72H48.61ZM31.35,23.22a7.78,7.78,0,1,1,11.3,0l-.48.51,5,5v6.6L40.69,52.69h3.58v9.74H29.74V52.69h3.57L26.79,35.37v-6.6l5.05-5Zm-6,11H1.48V29.45H25.35ZM1.48,72.54V35.61H25.4l5.84,15.64H28.3V63.86H45.7V51.25H42.77l5.83-15.5v-.14H72.51V72.54Z" fill="#fff"/></g></g></svg>