<svg xmlns="http://www.w3.org/2000/svg" viewBox="0 0 74 74"><title>ide_konsept</title><g id="Layer_2" data-name="Layer 2"><g id="Layer_1-2" data-name="Layer 1"><path d="M35.16,57.35c.6,0,1.2.09,1.81.09s1.25,0,1.86-.09v-14H35.16Z" fill="none"/><path d="M31.61,37.39a2.41,2.41,0,0,0,0,4.81H34V39.8A2.4,2.4,0,0,0,31.61,37.39Z" fill="none"/><path d="M57.42,37A20.45,20.45,0,1,0,34,57.2V43.35h-2.4a3.56,3.56,0,1,1,3.55-3.55v2.4h3.67V39.8a3.56,3.56,0,1,1,3.56,3.55H40V57.2A20.47,20.47,0,0,0,57.42,37Z" fill="none"/><path d="M44.07,72.53V57.39a21.57,21.57,0,0,1-14.19,0V72.53Z" fill="none"/><path d="M1.47,72.53H28.73V57a21.6,21.6,0,1,1,16.49,0V72.53H72.53V1.46H1.47Z" fill="none"/><path d="M44.79,39.8a2.4,2.4,0,1,0-4.8,0v2.4h2.4A2.41,2.41,0,0,0,44.79,39.8Z" fill="none"/><path d="M0,0V74H74V0ZM40,57.2V43.35h2.4a3.56,3.56,0,1,0-3.56-3.55v2.4H35.16V39.8a3.55,3.55,0,1,0-3.55,3.55H34V57.2a20.42,20.42,0,1,1,6,0Zm-6-15h-2.4A2.41,2.41,0,1,1,34,39.8Zm4.82,15.15c-.61,0-1.23.09-1.86.09s-1.21,0-1.81-.09v-14h3.67ZM40,42.2V39.8a2.4,2.4,0,1,1,2.4,2.4ZM37,58.59a21.38,21.38,0,0,0,7.1-1.2V72.53H29.88V57.39A21.36,21.36,0,0,0,37,58.59ZM72.53,72.53H45.22V57a21.6,21.6,0,1,0-16.49,0V72.53H1.47V1.46H72.53Z" fill="#fff"/></g></g></svg>