<svg xmlns="http://www.w3.org/2000/svg" viewBox="0 0 74 74"><title>loop</title><g id="Layer_2" data-name="Layer 2"><g id="Layer_1-2" data-name="Layer 1"><path d="M1.47,72.53H72.53V1.46H1.47Zm58.92-30.6L57.8,39.1a20.91,20.91,0,0,1-41,3.12l1.57-.4A19.28,19.28,0,0,0,56.2,38.75L53.08,41.6,52,40.4l5-4.58,4.58,5ZM13.7,31.8,16.19,35a20.91,20.91,0,0,1,41-3.33l-1.57.42a19.29,19.29,0,0,0-37.84,3.08L21,32.67,22,34l-5.33,4.19-4.2-5.34Z" fill="none"/><path d="M0,0V74H74V0ZM72.53,72.53H1.47V1.46H72.53Z" fill="#fff"/><path d="M22,34l-1-1.28-3.14,2.47a19.29,19.29,0,0,1,37.84-3.08l1.57-.42a20.91,20.91,0,0,0-41,3.33L13.7,31.8l-1.28,1,4.2,5.34Z" fill="#fff"/><path d="M52,40.4l1.09,1.2,3.12-2.85a19.28,19.28,0,0,1-37.88,3.07l-1.57.4A20.91,20.91,0,0,0,57.8,39.1l2.59,2.83,1.19-1.09-4.58-5Z" fill="#fff"/></g></g></svg>