<svg xmlns="http://www.w3.org/2000/svg" viewBox="0 0 74 74"><title>lunsj</title><g id="Layer_2" data-name="Layer 2"><g id="Layer_1-2" data-name="Layer 1"><path d="M20.64,42.48a17.49,17.49,0,0,1,3.86,3.13c1.86,2.22,2.45,5.06,3,7.81s1.05,5.06,2.55,7a8.09,8.09,0,0,0,10.15,1.92,16,16,0,0,0,4.33-4.45,27.61,27.61,0,0,1,3-3.51,26.89,26.89,0,0,1,3.73-2.72,20,20,0,0,0,4.1-3.16c2.48-2.71,3.45-7,2.58-11.36-1-4.93-3.76-9.32-6.37-13A78.82,78.82,0,0,0,43.92,15c-1-1-4.57-4.37-8.25-4.37h-.13a6,6,0,0,0-4.82,2.73,12.17,12.17,0,0,0-1.1,2.54c-.19.55-.39,1.13-.64,1.69-1.27,2.88-3.58,5.05-5.84,7l-.56.49a26.42,26.42,0,0,0-5.41,5.78c-1.26,2.07-2.11,5.2-.71,7.75C17.35,40.29,19,41.35,20.64,42.48ZM37,30.9A6.1,6.1,0,1,1,30.9,37,6.11,6.11,0,0,1,37,30.9Z" fill="none"/><circle cx="37" cy="37" r="4.67" fill="none"/><path d="M1.47,72.54H72.53V1.48H1.47ZM15.94,30.16a27.11,27.11,0,0,1,5.7-6.1l.56-.49c2.14-1.88,4.32-3.93,5.47-6.54.22-.51.41-1,.6-1.59a13.76,13.76,0,0,1,1.24-2.82,7.36,7.36,0,0,1,6-3.41c4.18-.11,8,3.34,9.42,4.81a79.63,79.63,0,0,1,7.8,9.31c2.7,3.77,5.59,8.33,6.62,13.53,1,4.85-.14,9.56-2.93,12.6A21.57,21.57,0,0,1,52,52.85a25.28,25.28,0,0,0-3.52,2.57,25.75,25.75,0,0,0-2.82,3.32A17.6,17.6,0,0,1,41,63.57a9,9,0,0,1-4.6,1.23,9.42,9.42,0,0,1-7.42-3.51c-1.69-2.19-2.26-4.93-2.81-7.58S25,48.47,23.4,46.53a16.19,16.19,0,0,0-3.56-2.86c-1.76-1.17-3.58-2.38-4.64-4.32C13.51,36.26,14.48,32.58,15.94,30.16Z" fill="none"/><path d="M0,0V74H74V0ZM72.53,72.54H1.47V1.48H72.53Z" fill="#fff"/><path d="M37,43.1A6.1,6.1,0,1,0,30.9,37,6.11,6.11,0,0,0,37,43.1Zm0-10.77A4.67,4.67,0,1,1,32.33,37,4.68,4.68,0,0,1,37,32.33Z" fill="#fff"/><path d="M19.84,43.67a16.19,16.19,0,0,1,3.56,2.86C25,48.47,25.56,51,26.12,53.71s1.12,5.39,2.81,7.58a9.42,9.42,0,0,0,7.42,3.51A9,9,0,0,0,41,63.57a17.6,17.6,0,0,0,4.75-4.83,25.75,25.75,0,0,1,2.82-3.32A25.28,25.28,0,0,1,52,52.85a21.57,21.57,0,0,0,4.39-3.39c2.79-3,3.88-7.75,2.93-12.6-1-5.2-3.92-9.76-6.62-13.53A79.63,79.63,0,0,0,44.94,14C43.5,12.55,39.7,9.1,35.52,9.21a7.36,7.36,0,0,0-6,3.41,13.76,13.76,0,0,0-1.24,2.82c-.19.56-.38,1.08-.6,1.59-1.15,2.61-3.33,4.66-5.47,6.54l-.56.49a27.11,27.11,0,0,0-5.7,6.1c-1.46,2.42-2.43,6.1-.74,9.19C16.26,41.29,18.08,42.5,19.84,43.67ZM17.17,30.91a26.42,26.42,0,0,1,5.41-5.78l.56-.49c2.26-2,4.57-4.15,5.84-7,.25-.56.45-1.14.64-1.69a12.17,12.17,0,0,1,1.1-2.54,6,6,0,0,1,4.82-2.73h.13c3.68,0,7.24,3.34,8.25,4.37a78.82,78.82,0,0,1,7.66,9.15c2.61,3.64,5.4,8,6.37,13,.87,4.41-.1,8.65-2.58,11.36a20,20,0,0,1-4.1,3.16,26.89,26.89,0,0,0-3.73,2.72,27.61,27.61,0,0,0-3,3.51,16,16,0,0,1-4.33,4.45,8.09,8.09,0,0,1-10.15-1.92c-1.5-1.93-2-4.38-2.55-7s-1.16-5.59-3-7.81a17.49,17.49,0,0,0-3.86-3.13c-1.69-1.13-3.29-2.19-4.18-3.82C15.06,36.11,15.91,33,17.17,30.91Z" fill="#fff"/></g></g></svg>