<svg xmlns="http://www.w3.org/2000/svg" viewBox="0 0 74 74"><title>manager</title><g id="Layer_2" data-name="Layer 2"><g id="Layer_1-2" data-name="Layer 1"><polygon points="36.3 45.24 36.38 25.77 23.25 25.77 36.3 45.24" fill="none"/><polygon points="37.54 45.2 44.31 34.99 44.32 34.99 50.45 25.77 37.62 25.77 37.54 45.2" fill="none"/><path d="M38.11,47.88a3.68,3.68,0,0,0,3.64,3.72h0A3.68,3.68,0,0,0,45.47,48a3.67,3.67,0,0,0-3.64-3.72h0a3.67,3.67,0,0,0-3.68,3.64Z" fill="none"/><path d="M37,11.16A14,14,0,0,0,23,24.52H51A14,14,0,0,0,37,11.16Z" fill="none"/><path d="M1.48,72.49h71V1.5h-71ZM21.74,25.74l0,0v-.57a15.22,15.22,0,1,1,30.44,0v.62h-.28L40.34,43.23A5,5,0,0,1,41.79,43h.05a4.93,4.93,0,0,1-.05,9.85h0a4.91,4.91,0,0,1-4.83-4.45h0l-6,9.1L24,60.77l.85,1.77-1.11.54-1.39-2.89,6.37-3.06-5.59-2L22.51,57l-1.17-.42,1.08-3,7.74,2.77,6-9Z" fill="none"/><path d="M0,0V74H74V0ZM72.51,72.49h-71V1.5h71Z" fill="#fff"/><path d="M22.42,53.54l-1.08,3,1.17.42.66-1.85,5.59,2-6.37,3.06,1.39,2.89,1.11-.54L24,60.77l6.83-3.28,6-9.1h0a4.91,4.91,0,0,0,4.83,4.45h0A4.93,4.93,0,0,0,41.84,43h-.05a5,5,0,0,0-1.45.24l11.6-17.46h.28v-.62a15.22,15.22,0,1,0-30.44,0v.57l0,0L36.16,47.27l-6,9Zm19.37-9.3h0a3.68,3.68,0,0,1,0,7.36h0a3.68,3.68,0,0,1,0-7.36ZM44.32,35h0L37.54,45.2l.08-19.43H50.45Zm-8,10.25-13-19.47H36.38ZM37,11.16A14,14,0,0,1,51,24.52H23A14,14,0,0,1,37,11.16Z" fill="#fff"/></g></g></svg>