<svg xmlns="http://www.w3.org/2000/svg" viewBox="0 0 74 74"><title>malet</title><g id="Layer_2" data-name="Layer 2"><g id="Layer_1-2" data-name="Layer 1"><path d="M37,62.36A25.36,25.36,0,1,0,11.64,37,25.38,25.38,0,0,0,37,62.36Zm0-40.72a15.28,15.28,0,0,1,10.33,4l1.49-1.49V20h1.43v3.77H54v1.43H49.83l-1.49,1.49a15.34,15.34,0,1,1-11.34-5Z" fill="none"/><path d="M37,50.93A13.91,13.91,0,0,0,47.33,27.68l-6.25,6.25A5.06,5.06,0,0,1,42.13,37,5.13,5.13,0,1,1,37,31.87a5.06,5.06,0,0,1,3.07,1.05l6.25-6.25A13.92,13.92,0,1,0,37,50.93Z" fill="none"/><path d="M1.47,72.52H72.53v-71H1.47ZM37,10.2A26.8,26.8,0,1,1,10.2,37,26.83,26.83,0,0,1,37,10.2Z" fill="none"/><path d="M37,33.3A3.7,3.7,0,1,0,40.7,37a3.66,3.66,0,0,0-.63-2.06l-2.56,2.57-1-1,2.57-2.56A3.66,3.66,0,0,0,37,33.3Z" fill="none"/><path d="M0,0V74H74V0ZM72.53,72.52H1.47v-71H72.53Z" fill="#fff"/><path d="M37,52.36A15.34,15.34,0,0,0,48.34,26.67l1.49-1.49H54V23.75H50.25V20H48.82v4.19l-1.49,1.49A15.35,15.35,0,1,0,37,52.36Zm0-29.29a13.9,13.9,0,0,1,9.32,3.6l-6.25,6.25A5.06,5.06,0,0,0,37,31.87,5.13,5.13,0,1,0,42.13,37a5.06,5.06,0,0,0-1.05-3.07l6.25-6.25A13.91,13.91,0,1,1,37,23.07Zm.51,14.44,2.56-2.57A3.66,3.66,0,0,1,40.7,37,3.7,3.7,0,1,1,37,33.3a3.66,3.66,0,0,1,2.06.63l-2.57,2.56Z" fill="#fff"/><path d="M37,63.8A26.8,26.8,0,1,0,10.2,37,26.83,26.83,0,0,0,37,63.8Zm0-52.16A25.36,25.36,0,1,1,11.64,37,25.38,25.38,0,0,1,37,11.64Z" fill="#fff"/></g></g></svg>