<svg xmlns="http://www.w3.org/2000/svg" viewBox="0 0 74 74"><title>prototype_utvikle</title><g id="Layer_2" data-name="Layer 2"><g id="Layer_1-2" data-name="Layer 1"><path d="M20.91,42.71a19,19,0,0,1-.59-2,18,18,0,0,1-.31-2c-4.54,1.87-5.43,3-5.37,3.31C14.77,42.54,16.92,42.91,20.91,42.71Z" fill="none"/><path d="M22.11,42.63a109.39,109.39,0,0,0,15.57-2.46,110.31,110.31,0,0,0,15.14-4.39,15.9,15.9,0,1,0-31.37,4.69A15.44,15.44,0,0,0,22.11,42.63Z" fill="none"/><path d="M53.94,35.33c3.7-1.51,5.49-2.76,5.37-3.32-.07-.27-1.37-.95-6.27-.71a15.91,15.91,0,0,1,.9,4Z" fill="none"/><path d="M22.57,43.75A15.9,15.9,0,0,0,52.88,37a122.17,122.17,0,0,1-15,4.31A122.34,122.34,0,0,1,22.57,43.75Z" fill="none"/><path d="M1.48,72.53h71V1.46h-71Zm45.27-6.12H45.6V65.16h1.15ZM63.09,23.07h1.15v1.24H63.09Zm-2,33.65h1.15V58H61.08ZM34.47,8.22h1.15V9.47H34.47ZM19.93,37.47a17.05,17.05,0,0,1,32.67-7.3c6.6-.38,7.63.72,7.83,1.59C60.76,33.27,58,35,54,36.53A17.06,17.06,0,0,1,37,54.06,17.1,17.1,0,0,1,21.35,43.83c-.82.05-1.6.08-2.34.08-3.05,0-5.22-.46-5.49-1.67C13.33,41.37,13.79,39.94,19.93,37.47ZM12.3,19.89h1.15v1.24H12.3ZM8.47,63.05H9.62V64.3H8.47Z" fill="none"/><path d="M0,0V74H74V0ZM72.52,72.53h-71V1.46h71Z" fill="#fff"/><rect x="12.3" y="19.89" width="1.15" height="1.25" fill="#fff"/><rect x="8.47" y="63.05" width="1.15" height="1.25" fill="#fff"/><rect x="45.6" y="65.16" width="1.15" height="1.25" fill="#fff"/><rect x="34.47" y="8.22" width="1.15" height="1.25" fill="#fff"/><rect x="63.09" y="23.07" width="1.15" height="1.25" fill="#fff"/><rect x="61.08" y="56.72" width="1.15" height="1.25" fill="#fff"/><path d="M19,43.91c.74,0,1.52,0,2.34-.08A17.1,17.1,0,0,0,37,54.06,17.06,17.06,0,0,0,54,36.53c3.93-1.57,6.73-3.26,6.4-4.77-.2-.87-1.23-2-7.83-1.59a17.05,17.05,0,0,0-32.67,7.3c-6.14,2.47-6.6,3.9-6.41,4.77C13.79,43.45,16,43.91,19,43.91Zm31.4,1.62a15.91,15.91,0,0,1-27.84-1.78,122.34,122.34,0,0,0,15.36-2.46,122.17,122.17,0,0,0,15-4.31A15.88,15.88,0,0,1,50.41,45.53ZM59.31,32c.12.56-1.67,1.81-5.37,3.32a15.91,15.91,0,0,0-.9-4C57.94,31.06,59.24,31.74,59.31,32ZM33.51,21.47A15.81,15.81,0,0,1,52.82,35.78a110.31,110.31,0,0,1-15.14,4.39,109.39,109.39,0,0,1-15.57,2.46,15.44,15.44,0,0,1-.66-2.16A15.92,15.92,0,0,1,33.51,21.47ZM20,38.68a18,18,0,0,0,.31,2,19,19,0,0,0,.59,2c-4,.2-6.14-.17-6.27-.72C14.58,41.72,15.47,40.55,20,38.68Z" fill="#fff"/></g></g></svg>