<svg xmlns="http://www.w3.org/2000/svg" viewBox="0 0 74 74"><title>teste_lære</title><g id="Layer_2" data-name="Layer 2"><g id="Layer_1-2" data-name="Layer 1"><polygon points="53.2 56.75 45.39 46.36 45.39 56.75 53.2 56.75" fill="none"/><path d="M37,28.11A2.07,2.07,0,1,0,35,26,2.07,2.07,0,0,0,37,28.11Z" fill="none"/><path d="M44.24,44.35V21a7.24,7.24,0,0,0-14.48,0V44.35ZM37,22.82A3.22,3.22,0,1,1,33.82,26,3.22,3.22,0,0,1,37,22.82Z" fill="none"/><rect x="29.76" y="45.5" width="14.47" height="11.25" fill="none"/><polygon points="28.61 56.75 28.61 46.36 20.8 56.75 28.61 56.75" fill="none"/><path d="M1.5,72.53h71V1.46H1.5ZM26,65.71H24.85v-4.4H26Zm5.78,0H30.64v-4.4h1.15Zm5.79,0H36.42v-4.4h1.16Zm5.78,0H42.21v-4.4h1.15Zm5.79,0H48v-4.4h1.16ZM28.61,21a8.39,8.39,0,0,1,16.78,0V44.44L55.51,57.9h-37L28.61,44.44Z" fill="none"/><path d="M0,0V74H74V0ZM72.54,72.53H1.5V1.46h71Z" fill="#fff"/><path d="M28.61,57.9h26.9L45.39,44.44V21a8.39,8.39,0,0,0-16.78,0V44.44L18.49,57.9Zm1.15-1.15V45.5H44.24V56.75Zm23.44,0H45.39V46.36ZM29.76,21a7.24,7.24,0,0,1,14.48,0V44.35H29.76V21ZM28.61,56.75H20.8l7.81-10.39Z" fill="#fff"/><rect x="24.85" y="61.31" width="1.15" height="4.4" fill="#fff"/><rect x="30.64" y="61.31" width="1.15" height="4.4" fill="#fff"/><rect x="36.42" y="61.31" width="1.15" height="4.4" fill="#fff"/><rect x="42.21" y="61.31" width="1.15" height="4.4" fill="#fff"/><rect x="47.99" y="61.31" width="1.15" height="4.4" fill="#fff"/><path d="M37,29.26A3.22,3.22,0,1,0,33.82,26,3.22,3.22,0,0,0,37,29.26ZM37,24A2.07,2.07,0,1,1,35,26,2.07,2.07,0,0,1,37,24Z" fill="#fff"/></g></g></svg>