<svg xmlns="http://www.w3.org/2000/svg" viewBox="0 0 74 74"><title>ulemper</title><g id="Layer_2" data-name="Layer 2"><g id="Layer_1-2" data-name="Layer 1"><path d="M25.77,38.72l-2.83-.85-2,4.42-5,.83a8.91,8.91,0,0,0,11.42,1.39Z" fill="none"/><path d="M56.73,39.17,52.59,38l1,4.08L53,45.82A9,9,0,0,0,60.43,37c0-.26,0-.52,0-.77Z" fill="none"/><path d="M48.24,38.49l2.42-1.7-2.28-4.28,2.42-4.45a9,9,0,0,0-8.27,8.12Z" fill="none"/><path d="M50,32.52l2,3.87,4.36,1.21,3.69-3a9,9,0,0,0-7.68-6.54Z" fill="none"/><path d="M26.24,33.35l-2.5,3.26,3.19,1,1.71,6a8.91,8.91,0,0,0,1-12Z" fill="none"/><path d="M1.47,72.53H72.53V1.46H1.47ZM22.54,26.6a10.41,10.41,0,0,1,9.93,7.3,5.49,5.49,0,0,1,9.06,0,10.41,10.41,0,1,1-.47,3.1,4.06,4.06,0,0,0-8.12,0,10.4,10.4,0,1,1-10.4-10.4Z" fill="none"/><path d="M21.08,31.61l1.65,4,2.56-3.34,3.32-1.82a8.91,8.91,0,0,0-12.24.09Z" fill="none"/><path d="M51.56,46l.62-3.79-1-4-2.72,1.93-5.9-2.4A9,9,0,0,0,51.46,46Z" fill="none"/><path d="M20,41l1.8-4L20,32.84,15.3,31.73A8.9,8.9,0,0,0,15,41.84Z" fill="none"/><path d="M0,0V74H74V0ZM72.53,72.53H1.47V1.46H72.53Z" fill="#fff"/><path d="M22.54,47.4A10.41,10.41,0,0,0,32.94,37a4.06,4.06,0,0,1,8.12,0,10.39,10.39,0,1,0,.47-3.1,5.49,5.49,0,0,0-9.06,0,10.4,10.4,0,1,0-9.93,13.5Zm20-9.68,5.9,2.4,2.72-1.93,1,4L51.56,46h-.1A9,9,0,0,1,42.53,37.72ZM53,45.82l.61-3.71-1-4.08,4.14,1.14,3.66-2.94c0,.25,0,.51,0,.77A9,9,0,0,1,53,45.82Zm7.07-11.2-3.69,3-4.36-1.21-2-3.87,2.41-4.44A9,9,0,0,1,60.1,34.62Zm-9.3-6.56-2.42,4.45,2.28,4.28-2.42,1.7-5.71-2.31A9,9,0,0,1,50.8,28.06ZM16,43.12l5-.83,2-4.42,2.83.85,1.65,5.79A8.91,8.91,0,0,1,16,43.12Zm12.64.44-1.71-6-3.19-1,2.5-3.26,3.37-1.84a8.91,8.91,0,0,1-1,12.05Zm0-13.14-3.32,1.82-2.56,3.34-1.65-4-4.71-1.1a8.91,8.91,0,0,1,12.24-.09ZM15.3,31.73,20,32.84,21.77,37,20,41l-5,.83a8.9,8.9,0,0,1,.3-10.11Z" fill="#fff"/></g></g></svg>