<svg xmlns="http://www.w3.org/2000/svg" viewBox="0 0 74 74"><title>design_1</title><g id="Layer_2" data-name="Layer 2"><g id="Layer_1-2" data-name="Layer 1"><path d="M0,0V74H74V0ZM72.51,72.53h-71V1.46h71Z" fill="#1a1a1a"/><path d="M12.86,28.45a2.54,2.54,0,0,0,2.47-2H31.07a14.54,14.54,0,0,0-8.31,10.67,2.53,2.53,0,0,0,0,5A14.38,14.38,0,0,0,34.49,53.91a2.53,2.53,0,0,0,5,0A14.52,14.52,0,0,0,51.24,42.18a2.53,2.53,0,0,0,0-5,14.49,14.49,0,0,0-8.3-10.67H58.67a2.55,2.55,0,1,0,0-1.15H39.47a2.53,2.53,0,0,0-4.94,0H15.33a2.54,2.54,0,1,0-2.47,3.11Zm48.28-3.93a1.39,1.39,0,1,1-1.39,1.39A1.39,1.39,0,0,1,61.14,24.52ZM21.71,39.67a1.4,1.4,0,1,1,1.39,1.39A1.39,1.39,0,0,1,21.71,39.67ZM37,55a1.4,1.4,0,1,1,1.39-1.4A1.4,1.4,0,0,1,37,55ZM52.29,39.67a1.4,1.4,0,1,1-1.39-1.39A1.39,1.39,0,0,1,52.29,39.67ZM37,24.52a1.39,1.39,0,1,1-1.39,1.39A1.39,1.39,0,0,1,37,24.52Zm0,3.93a2.53,2.53,0,0,0,2.44-1.87A13.35,13.35,0,0,1,50.09,37.27a2.53,2.53,0,0,0,0,4.8A13.37,13.37,0,0,1,39.4,52.76a2.53,2.53,0,0,0-4.8,0A13.21,13.21,0,0,1,23.91,42.07a2.53,2.53,0,0,0,0-4.8A13.38,13.38,0,0,1,34.56,26.58,2.53,2.53,0,0,0,37,28.45ZM12.86,24.52a1.39,1.39,0,1,1-1.39,1.39A1.39,1.39,0,0,1,12.86,24.52Z" fill="#1a1a1a"/></g></g></svg>