<svg xmlns="http://www.w3.org/2000/svg" viewBox="0 0 74 74"><title>fordeler_1</title><g id="Layer_2" data-name="Layer 2"><g id="Layer_1-2" data-name="Layer 1"><path d="M22.71,46a9,9,0,1,0-9-9A9,9,0,0,0,22.71,46Z" fill="none"/><path d="M51.86,46a9,9,0,1,0-9-9A9,9,0,0,0,51.86,46Z" fill="none"/><path d="M1.47,72.53H72.53V1.46H1.47ZM22.71,26.6a10.48,10.48,0,0,1,10,7.3,5.55,5.55,0,0,1,9.13,0,10.41,10.41,0,1,1-.47,3.1,4.09,4.09,0,0,0-8.18,0A10.49,10.49,0,1,1,22.71,26.6Z" fill="none"/><path d="M0,0V74H74V0ZM72.53,72.53H1.47V1.46H72.53Z" fill="#1a1a1a"/><path d="M22.71,47.4A10.46,10.46,0,0,0,33.2,37a4.09,4.09,0,0,1,8.18,0,10.39,10.39,0,1,0,.47-3.1,5.55,5.55,0,0,0-9.13,0,10.47,10.47,0,1,0-10,13.5ZM51.86,28a9,9,0,1,1-9,9A9,9,0,0,1,51.86,28ZM22.71,28a9,9,0,1,1-9,9A9,9,0,0,1,22.71,28Z" fill="#1a1a1a"/></g></g></svg>