<svg xmlns="http://www.w3.org/2000/svg" viewBox="0 0 74 74"><title>innsikt_analyse_1</title><g id="Layer_2" data-name="Layer 2"><g id="Layer_1-2" data-name="Layer 1"><polygon points="36.85 72.53 36.85 65.02 29.78 72.53 36.85 72.53" fill="none"/><polygon points="55.23 45.38 51.82 34.41 16.01 49.22 17.2 52.99 55.23 45.38" fill="none"/><polygon points="38.01 65.02 38.01 72.53 45.08 72.53 38.01 65.02" fill="none"/><path d="M14,51.87a1.89,1.89,0,0,0,2.07,1.34L15,49.68A1.86,1.86,0,0,0,14,51.87Z" fill="none"/><polygon points="56.26 32.57 52.89 33.97 56.36 45.15 59.93 44.44 56.26 32.57" fill="none"/><path d="M1.47,72.53H28.23l8.62-9.23V50.23L16.41,54.32h0a2.54,2.54,0,0,1-.61.07,3,3,0,0,1-1.2-5.81h0l.49-.2L57,31,61.4,45.31,38,50V63.3l8.62,9.23h25.9V1.46H1.47ZM61.86,22.59H63v1.25H61.86ZM47.93,10.18h1.15v1.25H47.93ZM41.39,26.57h1.15v1.25H41.39ZM25.13,15.27h1.15v1.25H25.13ZM14.81,33.64H16v1.24H14.81ZM10.46,9.22h1.15v1.25H10.46Z" fill="none"/><path d="M0,0V74H74V0ZM16.06,53.21A1.89,1.89,0,0,1,14,51.87a1.86,1.86,0,0,1,1-2.19Zm0-4L51.82,34.41l3.41,11L17.2,53Zm40.35-4.07L52.89,34l3.37-1.4,3.67,11.87ZM38,65l7.07,7.51H38Zm-1.16,7.51H29.78L36.85,65ZM72.53,1.46V72.53H46.63L38,63.3V50L61.4,45.31,57,31,15.09,48.36l-.49.2h0a3,3,0,0,0,1.2,5.81,2.54,2.54,0,0,0,.61-.07h0l20.44-4.09V63.3l-8.62,9.23H1.47V1.46" fill="#1a1a1a"/><rect x="10.46" y="9.22" width="1.15" height="1.25" fill="#1a1a1a"/><rect x="14.81" y="33.64" width="1.15" height="1.25" fill="#1a1a1a"/><rect x="25.13" y="15.27" width="1.15" height="1.25" fill="#1a1a1a"/><rect x="41.39" y="26.57" width="1.15" height="1.25" fill="#1a1a1a"/><rect x="47.93" y="10.18" width="1.15" height="1.25" fill="#1a1a1a"/><rect x="61.86" y="22.59" width="1.15" height="1.25" fill="#1a1a1a"/></g></g></svg>