<svg xmlns="http://www.w3.org/2000/svg" viewBox="0 0 74 74"><title>konsulent_1</title><g id="Layer_2" data-name="Layer 2"><g id="Layer_1-2" data-name="Layer 1"><path d="M17.63,23.92A3.69,3.69,0,0,0,20,17.54a3.65,3.65,0,0,0-2.64-1A3.69,3.69,0,0,0,15,22.93,3.66,3.66,0,0,0,17.63,23.92Z" fill="none"/><path d="M47.28,55.59a3.44,3.44,0,0,1,5.39,0l-1.06,1a2,2,0,0,0-3.27,0,3.43,3.43,0,0,1-5.38,0l1.06-1a2,2,0,0,0,3.26,0Zm-8.65,0a3.47,3.47,0,0,1,5.39,0l-1.06,1a2,2,0,0,0-3.27,0,3.43,3.43,0,0,1-5.38,0l1.06-1a2,2,0,0,0,3.26,0Zm-8.65,0a3.44,3.44,0,0,1,5.39,0l-1.06,1a2,2,0,0,0-3.27,0,3.43,3.43,0,0,1-5.38,0l1.06-1a2,2,0,0,0,3.26,0ZM12.58,20.41a4.93,4.93,0,1,1,5.55,4.69v9.73h6.72V32.59h1.24v3.48h-8v7.36h2.24v1.24H16.88V25.1a4.83,4.83,0,0,1-2.73-1.26,4.9,4.9,0,0,1-1.57-3.43Z" fill="none"/><path d="M0,0V74H74V0ZM19.08,72.49H1.47v-24H19.08Zm53.45,0H54.92v-24H72.53Zm0-25.29H53.68v9.09a2.56,2.56,0,0,1-1-.7l-1.06,1a3.82,3.82,0,0,0,2.07,1.23V72.49H20.32V57.78a3.82,3.82,0,0,0,2.07-1.23A2.29,2.29,0,0,1,24,55.72a2.29,2.29,0,0,1,1.63.83l1.06-1a3.48,3.48,0,0,0-5.39,0,2.49,2.49,0,0,1-1,.7V47.2H1.47V1.5H72.53Z" fill="#1a1a1a"/><path d="M25.66,56.55a3.43,3.43,0,0,0,5.38,0,2,2,0,0,1,3.27,0l1.06-1a3.44,3.44,0,0,0-5.39,0,2,2,0,0,1-3.26,0Z" fill="#1a1a1a"/><path d="M34.31,56.55a3.43,3.43,0,0,0,5.38,0,2,2,0,0,1,3.27,0l1.06-1a3.47,3.47,0,0,0-5.39,0,2,2,0,0,1-3.26,0Z" fill="#1a1a1a"/><path d="M43,56.55a3.43,3.43,0,0,0,5.38,0,2,2,0,0,1,3.27,0l1.06-1a3.44,3.44,0,0,0-5.39,0,2,2,0,0,1-3.26,0Z" fill="#1a1a1a"/><path d="M16.88,25.1V44.67h3.49V43.43H18.13V36.07h8V32.59H24.85v2.24H18.13V25.1a4.92,4.92,0,1,0-5.55-4.69h0a4.9,4.9,0,0,0,1.57,3.43A4.83,4.83,0,0,0,16.88,25.1Zm.5-8.55a3.69,3.69,0,0,1,3.81,3.56,3.69,3.69,0,1,1-3.81-3.56Z" fill="#1a1a1a"/></g></g></svg>