<svg xmlns="http://www.w3.org/2000/svg" viewBox="0 0 74 74"><title>lunsj_1</title><g id="Layer_2" data-name="Layer 2"><g id="Layer_1-2" data-name="Layer 1"><path d="M0,0V74H74V0ZM72.53,72.54H1.47V1.48H72.53Z" fill="#1a1a1a"/><path d="M37,43.1A6.1,6.1,0,1,0,30.9,37,6.11,6.11,0,0,0,37,43.1Zm0-10.77A4.67,4.67,0,1,1,32.33,37,4.68,4.68,0,0,1,37,32.33Z" fill="#1a1a1a"/><path d="M19.84,43.67a16.19,16.19,0,0,1,3.56,2.86C25,48.47,25.56,51,26.12,53.71s1.12,5.39,2.81,7.58a9.42,9.42,0,0,0,7.42,3.51A9,9,0,0,0,41,63.57a17.6,17.6,0,0,0,4.75-4.83,25.75,25.75,0,0,1,2.82-3.32A25.28,25.28,0,0,1,52,52.85a21.57,21.57,0,0,0,4.39-3.39c2.79-3,3.88-7.75,2.93-12.6-1-5.2-3.92-9.76-6.62-13.53A79.63,79.63,0,0,0,44.94,14C43.5,12.55,39.7,9.1,35.52,9.21a7.36,7.36,0,0,0-6,3.41,13.76,13.76,0,0,0-1.24,2.82c-.19.56-.38,1.08-.6,1.59-1.15,2.61-3.33,4.66-5.47,6.54l-.56.49a27.11,27.11,0,0,0-5.7,6.1c-1.46,2.42-2.43,6.1-.74,9.19C16.26,41.29,18.08,42.5,19.84,43.67ZM17.17,30.91a26.42,26.42,0,0,1,5.41-5.78l.56-.49c2.26-2,4.57-4.15,5.84-7,.25-.56.45-1.14.64-1.69a12.17,12.17,0,0,1,1.1-2.54,6,6,0,0,1,4.82-2.73h.13c3.68,0,7.24,3.34,8.25,4.37a78.82,78.82,0,0,1,7.66,9.15c2.61,3.64,5.4,8,6.37,13,.87,4.41-.1,8.65-2.58,11.36a20,20,0,0,1-4.1,3.16,26.89,26.89,0,0,0-3.73,2.72,27.61,27.61,0,0,0-3,3.51,16,16,0,0,1-4.33,4.45,8.09,8.09,0,0,1-10.15-1.92c-1.5-1.93-2-4.38-2.55-7s-1.16-5.59-3-7.81a17.49,17.49,0,0,0-3.86-3.13c-1.69-1.13-3.29-2.19-4.18-3.82C15.06,36.11,15.91,33,17.17,30.91Z" fill="#1a1a1a"/></g></g></svg>