<svg xmlns="http://www.w3.org/2000/svg" viewBox="0 0 74 74"><title>målet_1</title><g id="Layer_2" data-name="Layer 2"><g id="Layer_1-2" data-name="Layer 1"><path d="M0,0V74H74V0ZM72.53,72.52H1.47v-71H72.53Z" fill="#1a1a1a"/><path d="M37,52.36A15.34,15.34,0,0,0,48.34,26.67l1.49-1.49H54V23.75H50.25V20H48.82v4.19l-1.49,1.49A15.35,15.35,0,1,0,37,52.36Zm0-29.29a13.9,13.9,0,0,1,9.32,3.6l-6.25,6.25A5.06,5.06,0,0,0,37,31.87,5.13,5.13,0,1,0,42.13,37a5.06,5.06,0,0,0-1.05-3.07l6.25-6.25A13.91,13.91,0,1,1,37,23.07Zm.51,14.44,2.56-2.57A3.66,3.66,0,0,1,40.7,37,3.7,3.7,0,1,1,37,33.3a3.66,3.66,0,0,1,2.06.63l-2.57,2.56Z" fill="#1a1a1a"/><path d="M37,63.8A26.8,26.8,0,1,0,10.2,37,26.83,26.83,0,0,0,37,63.8Zm0-52.16A25.36,25.36,0,1,1,11.64,37,25.38,25.38,0,0,1,37,11.64Z" fill="#1a1a1a"/></g></g></svg>