<svg xmlns="http://www.w3.org/2000/svg" viewBox="0 0 74 74"><title>passord_1</title><g id="Layer_2" data-name="Layer 2"><g id="Layer_1-2" data-name="Layer 1"><path d="M0,0V74H74V0ZM72.53,72.54H1.47V1.48H72.53Z" fill="#1a1a1a"/><path d="M11.4,32.84h4.94l-3.49,3.49a.63.63,0,0,0,0,.88.63.63,0,0,0,.88,0l3.49-3.49v4.94a.63.63,0,0,0,1.25,0V33.72L22,37.21a.62.62,0,0,0,.44.18.66.66,0,0,0,.44-.18.63.63,0,0,0,0-.88l-3.5-3.49h4.94a.63.63,0,1,0,0-1.25H19.35l3.5-3.49a.63.63,0,0,0,0-.88.61.61,0,0,0-.88,0l-3.5,3.49V25.77a.63.63,0,0,0-1.25,0v4.94l-3.49-3.49a.61.61,0,0,0-.88,0,.63.63,0,0,0,0,.88l3.49,3.49H11.4a.63.63,0,0,0,0,1.25Z" fill="#1a1a1a"/><path d="M11.4,48.86H24.29a.63.63,0,1,0,0-1.25H11.4a.63.63,0,0,0,0,1.25Z" fill="#1a1a1a"/><path d="M62.6,47.61H49.71a.63.63,0,1,0,0,1.25H62.6a.63.63,0,0,0,0-1.25Z" fill="#1a1a1a"/><path d="M30.55,48.86h12.9a.63.63,0,0,0,0-1.25H30.55a.63.63,0,0,0,0,1.25Z" fill="#1a1a1a"/><path d="M49.66,32.84H54.6l-3.49,3.49a.61.61,0,0,0,0,.88.62.62,0,0,0,.44.18.66.66,0,0,0,.44-.18l3.49-3.49v4.94a.63.63,0,0,0,1.25,0V33.72l3.49,3.49a.63.63,0,0,0,.88,0,.63.63,0,0,0,0-.88l-3.49-3.49h4.94a.63.63,0,0,0,0-1.25H57.61L61.1,28.1a.63.63,0,0,0,0-.88.61.61,0,0,0-.88,0l-3.49,3.49V25.77a.63.63,0,0,0-1.25,0v4.94L52,27.22a.62.62,0,1,0-.88.88l3.49,3.49H49.66a.63.63,0,0,0,0,1.25Z" fill="#1a1a1a"/><path d="M30.55,32.84H35.5L32,36.33a.63.63,0,0,0,0,.88.63.63,0,0,0,.88,0l3.5-3.49v4.94a.62.62,0,1,0,1.24,0V33.72l3.5,3.49a.63.63,0,0,0,.88,0,.63.63,0,0,0,0-.88l-3.5-3.49h5a.63.63,0,0,0,0-1.25h-5L42,28.1a.63.63,0,0,0,0-.88.61.61,0,0,0-.88,0l-3.5,3.49V25.77a.62.62,0,0,0-1.24,0v4.94l-3.5-3.49a.61.61,0,0,0-.88,0,.63.63,0,0,0,0,.88l3.5,3.49H30.55a.63.63,0,0,0,0,1.25Z" fill="#1a1a1a"/></g></g></svg>