<svg xmlns="http://www.w3.org/2000/svg" viewBox="0 0 74 74"><title>ulemper_1</title><g id="Layer_2" data-name="Layer 2"><g id="Layer_1-2" data-name="Layer 1"><path d="M0,0V74H74V0ZM72.53,72.53H1.47V1.46H72.53Z" fill="#1a1a1a"/><path d="M22.54,47.4A10.41,10.41,0,0,0,32.94,37a4.06,4.06,0,0,1,8.12,0,10.39,10.39,0,1,0,.47-3.1,5.49,5.49,0,0,0-9.06,0,10.4,10.4,0,1,0-9.93,13.5Zm20-9.68,5.9,2.4,2.72-1.93,1,4L51.56,46h-.1A9,9,0,0,1,42.53,37.72ZM53,45.82l.61-3.71-1-4.08,4.14,1.14,3.66-2.94c0,.25,0,.51,0,.77A9,9,0,0,1,53,45.82Zm7.07-11.2-3.69,3-4.36-1.21-2-3.87,2.41-4.44A9,9,0,0,1,60.1,34.62Zm-9.3-6.56-2.42,4.45,2.28,4.28-2.42,1.7-5.71-2.31A9,9,0,0,1,50.8,28.06ZM16,43.12l5-.83,2-4.42,2.83.85,1.65,5.79A8.91,8.91,0,0,1,16,43.12Zm12.64.44-1.71-6-3.19-1,2.5-3.26,3.37-1.84a8.91,8.91,0,0,1-1,12.05Zm0-13.14-3.32,1.82-2.56,3.34-1.65-4-4.71-1.1a8.91,8.91,0,0,1,12.24-.09ZM15.3,31.73,20,32.84,21.77,37,20,41l-5,.83a8.9,8.9,0,0,1,.3-10.11Z" fill="#1a1a1a"/></g></g></svg>