<svg xmlns="http://www.w3.org/2000/svg" viewBox="0 0 74 74"><title>verktøy_3</title><g id="Layer_2" data-name="Layer 2"><g id="Layer_1-2" data-name="Layer 1"><path d="M0,0V74H74V0ZM28,1.46l4.28,10.83L12.67,20,5.35,1.46Zm3.12,24.6a4.39,4.39,0,1,0-8.16,3.22,4.34,4.34,0,0,0,2.33,2.41,4.26,4.26,0,0,0,1.75.37,4.13,4.13,0,0,0,.92-.11l8.82,22.39L9.36,33.1l3.5-11.63,20.25-8L43.6,19.61,38.07,53.82l-8.82-22.4A4.39,4.39,0,0,0,31.08,26.06Zm-3,4.36a3,3,0,1,1-2.16-5.5,3,3,0,0,1,3.83,1.66,3,3,0,0,1-1.67,3.84ZM1.5,1.46H3.81L11.51,21,7.71,33.63l29.7,23L1.5,60.58Zm71,71.07H1.5V62l71-7.72Zm0-19.67L39.09,56.49l6.08-37.62L33.75,12.2,29.5,1.46h43Z" fill="#1a1a1a"/></g></g></svg>