<svg xmlns="http://www.w3.org/2000/svg" viewBox="0 0 74 74"><title>bart_1</title><g id="Layer_2" data-name="Layer 2"><g id="Layer_1-2" data-name="Layer 1"><path d="M0,0V74H74V0ZM72.51,72.54h-71V1.48h71Z" fill="#1a1a1a"/><path d="M20.38,44.66c6.7.48,13.25-2.33,16.62-5.5a23.21,23.21,0,0,0,15.1,5.55c.5,0,1,0,1.52-.05a11.08,11.08,0,0,0,10.44-8.59.7.7,0,0,0-.49-.81.71.71,0,0,0-.86.39S61.65,37.89,58,37.59c-2.25-.18-3.9-1.6-5.8-3.24A20.66,20.66,0,0,0,45.25,30C40.6,28.35,38.07,30,37,31,35.93,30,33.4,28.35,28.75,30a20.66,20.66,0,0,0-6.94,4.4C19.9,36,18.26,37.41,16,37.59c-3.61.3-4.68-1.86-4.72-1.94a.71.71,0,0,0-.86-.39.7.7,0,0,0-.49.81A11.06,11.06,0,0,0,20.38,44.66ZM16.13,39c2.71-.22,4.61-1.85,6.61-3.58a19.48,19.48,0,0,1,6.47-4.14c5.22-1.79,7.1,1.1,7.18,1.22a.74.74,0,0,0,1.22,0s1.9-3,7.18-1.22a19.48,19.48,0,0,1,6.47,4.14c2,1.73,3.9,3.36,6.61,3.58a7.59,7.59,0,0,0,3.77-.58,9.6,9.6,0,0,1-8.12,4.79c-6.54.47-13.13-2.52-16-5.57a.7.7,0,0,0-1,0c-2.87,3.05-9.45,6-16,5.57a9.6,9.6,0,0,1-8.12-4.79A7.59,7.59,0,0,0,16.13,39Z" fill="#1a1a1a"/></g></g></svg>