<svg id="Layer_1" data-name="Layer 1" xmlns="http://www.w3.org/2000/svg" viewBox="0 0 31.18 22.68"><defs><style>.cls-1{fill:#201c1d;}</style></defs><title>Bekk ikoner</title><path class="cls-1" d="M22.44,21.36c-.5,0-1.85-1-7.43-5.61H7.29a2.12,2.12,0,0,1-2.11-2.11V3.43A2.12,2.12,0,0,1,7.29,1.31h16.6A2.12,2.12,0,0,1,26,3.43V13.64a2.12,2.12,0,0,1-2.11,2.11H22.3c.71,5.14.64,5.22.46,5.43A.41.41,0,0,1,22.44,21.36ZM7.29,14.75h8.08l.14.12c2.39,2,5,4.13,6.31,5.05-.11-1.06-.35-2.91-.59-4.6l-.08-.57h2.74A1.11,1.11,0,0,0,25,13.64V3.43a1.12,1.12,0,0,0-1.11-1.12H7.29A1.12,1.12,0,0,0,6.18,3.43V13.64a1.11,1.11,0,0,0,1.11,1.11Z"/><path class="cls-1" d="M21.77,6.54H9.41A.46.46,0,0,1,9,6.08a.47.47,0,0,1,.46-.46H21.77a.47.47,0,0,1,.46.46A.46.46,0,0,1,21.77,6.54Z"/><path class="cls-1" d="M21.77,11.52H9.41A.46.46,0,0,1,9,11.06a.47.47,0,0,1,.46-.46H21.77a.47.47,0,0,1,.46.46A.46.46,0,0,1,21.77,11.52Z"/></svg>