<svg xmlns="http://www.w3.org/2000/svg" viewBox="0 0 74 74"><title>filter_1</title><g id="Layer_2" data-name="Layer 2"><g id="Layer_1-2" data-name="Layer 1"><path d="M0,0V74H74V0ZM72.52,72.53h-71V1.46h71Z" fill="#1a1a1a"/><path d="M19.06,29.57V54.22h1.43V29.57a3.34,3.34,0,0,0,0-6.53V19.78H19.06V23a3.34,3.34,0,0,0,0,6.53Zm.72-5.17a1.91,1.91,0,1,1-1.91,1.91A1.9,1.9,0,0,1,19.78,24.4Z" fill="#1a1a1a"/><path d="M36.28,49.82v4.4h1.44v-4.4a3.34,3.34,0,0,0,0-6.53V19.78H36.28V43.29a3.34,3.34,0,0,0,0,6.53ZM37,44.65a1.91,1.91,0,1,1-1.91,1.91A1.91,1.91,0,0,1,37,44.65Z" fill="#1a1a1a"/><path d="M53.51,36.62v17.6h1.43V36.62a3.34,3.34,0,0,0,0-6.52V19.78H53.51V30.1a3.34,3.34,0,0,0,0,6.52Zm.71-5.17a1.91,1.91,0,1,1-1.9,1.91A1.91,1.91,0,0,1,54.22,31.45Z" fill="#1a1a1a"/></g></g></svg>