<svg xmlns="http://www.w3.org/2000/svg" viewBox="0 0 74 74"><title>fra_studier_1</title><g id="Layer_2" data-name="Layer 2"><g id="Layer_1-2" data-name="Layer 1"><path d="M0,0V74H74V0ZM20.27,48.82H1.5V24.53A19.43,19.43,0,0,1,20.27,44.15ZM1.5,50.07H20.27V72.49H1.5Zm71,22.42h-51V50.07H49.89V48.82H21.52V44.15a20.69,20.69,0,0,0-20-20.88V1.5h71Z" fill="#1a1a1a"/><path d="M48.78,38.62,44.5,45.73l1.07.64,4.92-8.18L45.7,35.31,52.48,24a5.86,5.86,0,0,0,2.51.57,6,6,0,0,0,3.6-10.72l2.72-4.52-1.07-.64-2.72,4.52a6,6,0,0,0-6.11,10.16L44,35.74ZM59,21.08A4.71,4.71,0,0,1,53.13,23l4.8-8A4.71,4.71,0,0,1,59,21.08ZM51,16.22a4.71,4.71,0,0,1,5.92-1.9l-4.81,8A4.72,4.72,0,0,1,51,16.22Z" fill="#1a1a1a"/></g></g></svg>