<svg xmlns="http://www.w3.org/2000/svg" viewBox="0 0 74 74"><title>ide_konsept_1</title><g id="Layer_2" data-name="Layer 2"><g id="Layer_1-2" data-name="Layer 1"><path d="M0,0V74H74V0ZM40,57.2V43.35h2.4a3.56,3.56,0,1,0-3.56-3.55v2.4H35.16V39.8a3.55,3.55,0,1,0-3.55,3.55H34V57.2a20.42,20.42,0,1,1,6,0Zm-6-15h-2.4A2.41,2.41,0,1,1,34,39.8Zm4.82,15.15c-.61,0-1.23.09-1.86.09s-1.21,0-1.81-.09v-14h3.67ZM40,42.2V39.8a2.4,2.4,0,1,1,2.4,2.4ZM37,58.59a21.38,21.38,0,0,0,7.1-1.2V72.53H29.88V57.39A21.36,21.36,0,0,0,37,58.59ZM72.53,72.53H45.22V57a21.6,21.6,0,1,0-16.49,0V72.53H1.47V1.46H72.53Z" fill="#1a1a1a"/></g></g></svg>