<svg xmlns="http://www.w3.org/2000/svg" viewBox="0 0 74 74"><title>manager_1</title><g id="Layer_2" data-name="Layer 2"><g id="Layer_1-2" data-name="Layer 1"><path d="M0,0V74H74V0ZM72.51,1.5v71h-71V1.5" fill="#1a1a1a"/><path d="M22.42,53.54l-1.08,3,1.17.42.66-1.85,5.59,2-6.37,3.06,1.39,2.89,1.11-.54L24,60.77l6.83-3.28,6-9.1h0a4.91,4.91,0,0,0,4.83,4.45h0A4.93,4.93,0,0,0,41.84,43h-.05a5,5,0,0,0-1.45.24l11.6-17.46h.28v-.62a15.22,15.22,0,1,0-30.44,0v.57l0,0L36.16,47.27l-6,9Zm19.37-9.3h0a3.68,3.68,0,0,1,0,7.36h0a3.68,3.68,0,0,1,0-7.36ZM44.32,35h0L37.54,45.2l.08-19.43H50.45Zm-8,10.25-13-19.47H36.38ZM37,11.16A14,14,0,0,1,51,24.52H23A14,14,0,0,1,37,11.16Z" fill="#1a1a1a"/></g></g></svg>