<svg xmlns="http://www.w3.org/2000/svg" viewBox="0 0 74 74"><title>prototype_utvikling</title><g id="Layer_2" data-name="Layer 2"><g id="Layer_1-2" data-name="Layer 1"><path d="M0,0V74H74V0ZM72.52,72.53h-71V1.46h71Z" fill="#1a1a1a"/><rect x="12.3" y="19.89" width="1.15" height="1.25" fill="#1a1a1a"/><rect x="8.47" y="63.05" width="1.15" height="1.25" fill="#1a1a1a"/><rect x="45.6" y="65.16" width="1.15" height="1.25" fill="#1a1a1a"/><rect x="34.47" y="8.22" width="1.15" height="1.25" fill="#1a1a1a"/><rect x="63.09" y="23.07" width="1.15" height="1.25" fill="#1a1a1a"/><rect x="61.08" y="56.72" width="1.15" height="1.25" fill="#1a1a1a"/><path d="M19,43.91c.74,0,1.52,0,2.34-.08A17.1,17.1,0,0,0,37,54.06,17.06,17.06,0,0,0,54,36.53c3.93-1.57,6.73-3.26,6.4-4.77-.2-.87-1.23-2-7.83-1.59a17.05,17.05,0,0,0-32.67,7.3c-6.14,2.47-6.6,3.9-6.41,4.77C13.79,43.45,16,43.91,19,43.91Zm31.4,1.62a15.91,15.91,0,0,1-27.84-1.78,122.34,122.34,0,0,0,15.36-2.46,122.17,122.17,0,0,0,15-4.31A15.88,15.88,0,0,1,50.41,45.53ZM59.31,32c.12.56-1.67,1.81-5.37,3.32a15.91,15.91,0,0,0-.9-4C57.94,31.06,59.24,31.74,59.31,32ZM33.51,21.47A15.81,15.81,0,0,1,52.82,35.78a110.31,110.31,0,0,1-15.14,4.39,109.39,109.39,0,0,1-15.57,2.46,15.44,15.44,0,0,1-.66-2.16A15.92,15.92,0,0,1,33.51,21.47ZM20,38.68a18,18,0,0,0,.31,2,19,19,0,0,0,.59,2c-4,.2-6.14-.17-6.27-.72C14.58,41.72,15.47,40.55,20,38.68Z" fill="#1a1a1a"/></g></g></svg>