<svg xmlns="http://www.w3.org/2000/svg" viewBox="0 0 74 74"><title>samarbeid_1</title><g id="Layer_2" data-name="Layer 2"><g id="Layer_1-2" data-name="Layer 1"><path d="M49.53,29.61a4.58,4.58,0,0,0,5.61-3.25,4.58,4.58,0,0,0-3.24-5.6,4.48,4.48,0,0,0-1.19-.16A4.59,4.59,0,0,0,46.29,24a4.58,4.58,0,0,0,3.24,5.61Z" fill="none"/><path d="M45.51,28.19a5.91,5.91,0,0,1-.76-2.29H29.26a6,6,0,0,1-.77,2.29A5.85,5.85,0,0,1,27,29.86l7.65,13.56a6,6,0,0,1,4.93.14l7.61-13.48A6,6,0,0,1,45.51,28.19Z" fill="none"/><path d="M21,29.14a4.59,4.59,0,0,0,6.26-1.67,4.59,4.59,0,0,0-3.95-6.88,4.38,4.38,0,0,0-1.19.16,4.52,4.52,0,0,0-2.78,2.13A4.59,4.59,0,0,0,21,29.14Z" fill="none"/><path d="M39.55,45.17h0l0,0A4.53,4.53,0,0,0,37,44.38a4.46,4.46,0,0,0-2.24.6A4.58,4.58,0,0,0,33,51.21,4.59,4.59,0,0,0,39.25,53,4.59,4.59,0,0,0,41,46.71,4.73,4.73,0,0,0,39.55,45.17Z" fill="none"/><path d="M18.09,22.16a6,6,0,0,1,11,1.47,6.17,6.17,0,0,1,.15.84h15.5a6.21,6.21,0,0,1,.16-.84,6,6,0,1,1,8.82,6.76,6,6,0,0,1-4.57.6,5.3,5.3,0,0,1-.67-.23L40.83,44.34A5.85,5.85,0,0,1,42.23,46,6,6,0,0,1,40,54.2a6,6,0,0,1-8.75-6.85,5.92,5.92,0,0,1,2.24-3.21L25.82,30.61a6,6,0,0,1-7.73-8.45Z" fill="none"/><path d="M0,0V74H74V0ZM72.53,72.52H1.5v-71h71Z" fill="#1a1a1a"/><path d="M20.27,30.38a6,6,0,0,0,5.55.23l7.63,13.53a5.92,5.92,0,0,0-2.24,3.21,6,6,0,1,0,11.58,3.22A6,6,0,0,0,42.23,46a5.85,5.85,0,0,0-1.4-1.67l7.66-13.58a5.3,5.3,0,0,0,.67.23,6,6,0,0,0,4.57-.6,6,6,0,1,0-8.82-6.76,6.21,6.21,0,0,0-.16.84H29.25a6.17,6.17,0,0,0-.15-.84,6,6,0,1,0-8.83,6.75ZM41.41,50.19A4.53,4.53,0,0,1,39.25,53,4.59,4.59,0,0,1,33,51.21,4.58,4.58,0,0,1,34.75,45a4.46,4.46,0,0,1,2.24-.6,4.53,4.53,0,0,1,2.52.77l0,0h0A4.73,4.73,0,0,1,41,46.71,4.55,4.55,0,0,1,41.41,50.19Zm-1.79-6.63a6,6,0,0,0-4.93-.14L27,29.86a5.85,5.85,0,0,0,1.45-1.67,6,6,0,0,0,.77-2.29H44.75a5.91,5.91,0,0,0,.76,2.29,6,6,0,0,0,1.72,1.89ZM46.29,24a4.59,4.59,0,0,1,4.42-3.4,4.61,4.61,0,0,1,4,2.29A4.59,4.59,0,0,1,53,29.15,4.58,4.58,0,0,1,46.29,24Zm-27-1.12a4.52,4.52,0,0,1,2.78-2.13,4.38,4.38,0,0,1,1.19-.16,4.59,4.59,0,0,1,3.95,6.88,4.58,4.58,0,1,1-7.92-4.59Z" fill="#1a1a1a"/></g></g></svg>