<svg xmlns="http://www.w3.org/2000/svg" viewBox="0 0 74 74"><title>sol_1</title><g id="Layer_2" data-name="Layer 2"><g id="Layer_1-2" data-name="Layer 1"><path d="M0,0V74H74V0ZM72.53,72.52H1.47v-71H72.53Z" fill="#1a1a1a"/><path d="M37,46.53a9.53,9.53,0,1,0-6.74-2.79A9.5,9.5,0,0,0,37,46.53ZM31.27,31.27a8.1,8.1,0,1,1,0,11.46A8.12,8.12,0,0,1,31.27,31.27Z" fill="#1a1a1a"/><rect x="36.28" y="13.32" width="1.44" height="4.15" fill="#1a1a1a"/><rect x="50.21" y="21" width="4.15" height="1.44" transform="translate(-0.05 43.33) rotate(-45)" fill="#1a1a1a"/><rect x="56.53" y="36.28" width="4.15" height="1.44" fill="#1a1a1a"/><rect x="51.56" y="50.21" width="1.44" height="4.15" transform="translate(-21.65 52.28) rotate(-45)" fill="#1a1a1a"/><rect x="36.28" y="56.53" width="1.44" height="4.15" fill="#1a1a1a"/><rect x="19.65" y="51.56" width="4.15" height="1.44" transform="translate(-30.6 30.67) rotate(-45)" fill="#1a1a1a"/><rect x="13.32" y="36.28" width="4.15" height="1.44" fill="#1a1a1a"/><rect x="21" y="19.65" width="1.44" height="4.15" transform="translate(-9 21.72) rotate(-45)" fill="#1a1a1a"/></g></g></svg>